<?xml version="1.0" encoding="utf-8"?>
<!-- Generator: Adobe Illustrator 24.1.1, SVG Export Plug-In . SVG Version: 6.00 Build 0)  -->
<svg version="1.1" id="Layer_1" xmlns="http://www.w3.org/2000/svg" xmlns:xlink="http://www.w3.org/1999/xlink" x="0px" y="0px"
	 viewBox="0 0 666 300" style="enable-background:new 0 0 666 300;" xml:space="preserve">
<style type="text/css">
	.st0{fill:url(#SVGID_1_);}
	.st1{fill:url(#SVGID_2_);}
	.st2{fill:#606161;}
	.st3{font-family:'Poppins-Medium';}
	.st4{font-size:120.2093px;}
</style>
<linearGradient id="SVGID_1_" gradientUnits="userSpaceOnUse" x1="136.6251" y1="25.7583" x2="136.6251" y2="272.2189">
	<stop  offset="0" style="stop-color:#606161"/>
	<stop  offset="1" style="stop-color:#000000"/>
</linearGradient>
<path class="st0" d="M56,208l-3.1,8.3L52,200.3L43.2,35.4l38.7-2.1l41.5-2.3l-2.8,7.7L56,208z M188.5,206.8l-87.1,0.5l-20.8,56.1
	l-3.2,8.8l45.8-2.5l88.7-4.8L188.5,206.8z M222.1,43.4l-1-17.6l-57.8,3.1l2.6,6.2l64.2,157.8L222.1,43.4z"/>
<linearGradient id="SVGID_2_" gradientUnits="userSpaceOnUse" x1="157.8423" y1="22.9404" x2="157.8423" y2="284.0364">
	<stop  offset="0.2626" style="stop-color:#E7C96A"/>
	<stop  offset="0.9944" style="stop-color:#BD802B"/>
</linearGradient>
<path class="st1" d="M124.2,28.9l-0.8,2.1l-2.8,7.7L56,208L81.9,33.3l1.5-10.3L124.2,28.9z M174.1,170.1l-30.4-80.7l-29,81.1
	L174.1,170.1z M211.8,265l-23.3-58.2l-87.1,0.5l-20.8,56.1l42.6,6.3l96.4,14.3L211.8,265z M222.1,43.4l-56.2-8.3l64.2,157.8
	l6.1,14.8L259.7,49L222.1,43.4z"/>
<text transform="matrix(1 0 0 1 269.624 216.3262)" class="st2 st3 st4">Activ8</text>
</svg>
