<svg width="181" height="151" viewBox="0 0 181 151" fill="none" xmlns="http://www.w3.org/2000/svg">
<rect x="0.5" y="0.5" width="180" height="150" rx="19.5" fill="white"/>
<path d="M115.604 40.5319L64.0427 21.1966C61.8516 20.4232 59.6602 22.0345 59.6602 24.2261V124.555H56.2227C54.4178 124.555 53 125.973 53 127.778C53 129.582 54.4178 131 56.2227 131H117.666C117.666 110.073 117.666 96.1764 117.666 43.5614C117.666 42.2077 116.828 40.9831 115.604 40.5319ZM85.4403 124.555H72.5501V108.442C72.5501 106.637 73.9679 105.219 75.7728 105.219H85.4405V124.555H85.4403ZM82.2179 98.7745H75.7728C73.9679 98.7745 72.5501 97.3564 72.5501 95.5519C72.5501 93.747 73.9679 92.3292 75.7728 92.3292H82.2179C84.0228 92.3292 85.4405 93.747 85.4405 95.5519C85.4403 97.3564 84.0228 98.7745 82.2179 98.7745ZM82.2179 85.8843H75.7728C73.9679 85.8843 72.5501 84.4662 72.5501 82.6617C72.5501 80.8568 73.9679 79.439 75.7728 79.439H82.2179C84.0228 79.439 85.4405 80.8568 85.4405 82.6617C85.4403 84.4662 84.0228 85.8843 82.2179 85.8843ZM82.2179 72.9942H75.7728C73.9679 72.9942 72.5501 71.576 72.5501 69.7715C72.5501 67.9666 73.9679 66.5488 75.7728 66.5488H82.2179C84.0228 66.5488 85.4405 67.9666 85.4405 69.7715C85.4403 71.576 84.0228 72.9942 82.2179 72.9942ZM82.2179 60.104H75.7728C73.9679 60.104 72.5501 58.6858 72.5501 56.8813C72.5501 55.0764 73.9679 53.6587 75.7728 53.6587H82.2179C84.0228 53.6587 85.4405 55.0764 85.4405 56.8813C85.4403 58.6858 84.0228 60.104 82.2179 60.104ZM104.776 124.555H91.8856V105.22H101.553C103.358 105.22 104.776 106.637 104.776 108.442V124.555H104.776ZM101.553 98.7745H95.1081C93.3032 98.7745 91.8854 97.3564 91.8854 95.5519C91.8854 93.747 93.3032 92.3292 95.1081 92.3292H101.553C103.358 92.3292 104.776 93.747 104.776 95.5519C104.776 97.3564 103.358 98.7745 101.553 98.7745ZM101.553 85.8843H95.1081C93.3032 85.8843 91.8854 84.4662 91.8854 82.6617C91.8854 80.8568 93.3032 79.439 95.1081 79.439H101.553C103.358 79.439 104.776 80.8568 104.776 82.6617C104.776 84.4662 103.358 85.8843 101.553 85.8843ZM101.553 72.9942H95.1081C93.3032 72.9942 91.8854 71.576 91.8854 69.7715C91.8854 67.9666 93.3032 66.5488 95.1081 66.5488H101.553C103.358 66.5488 104.776 67.9666 104.776 69.7715C104.776 71.576 103.358 72.9942 101.553 72.9942ZM101.553 60.104H95.1081C93.3032 60.104 91.8854 58.6858 91.8854 56.8813C91.8854 55.0764 93.3032 53.6587 95.1081 53.6587H101.553C103.358 53.6587 104.776 55.0764 104.776 56.8813C104.776 58.6858 103.358 60.104 101.553 60.104Z" fill="#DB3539"/>
<path d="M160 9C153.383 9 148 14.3829 148 21C148 27.6171 153.383 33 160 33C166.617 33 172 27.6171 172 21C172 14.3829 166.617 9 160 9Z" fill="#DB3539"/>
<path d="M166.082 18.457L159.582 24.9569C159.387 25.1519 159.131 25.2501 158.875 25.2501C158.619 25.2501 158.363 25.1519 158.168 24.9569L154.918 21.707C154.527 21.316 154.527 20.684 154.918 20.293C155.309 19.9019 155.941 19.9019 156.332 20.293L158.875 22.836L164.668 17.0431C165.059 16.652 165.691 16.652 166.082 17.0431C166.473 17.434 166.473 18.0659 166.082 18.457V18.457Z" fill="#FAFAFA"/>
<rect x="0.5" y="0.5" width="180" height="150" rx="19.5" stroke="#DB3539"/>
</svg>
