<svg width="24" height="24" viewBox="0 0 24 24" fill="none" xmlns="http://www.w3.org/2000/svg">
<path d="M12 12V24H4.5C2.01633 23.9962 0.00384375 21.9837 0 19.5V12H12Z" fill="#2196F3"/>
<path d="M24 12V19.5C23.9962 21.9837 21.9837 23.9962 19.5 24H12V12H24Z" fill="#455A64"/>
<path d="M24 4.5V12H12V0H19.5C21.9837 0.00384375 23.9962 2.01633 24 4.5Z" fill="#FFC107"/>
<path d="M12 0V12H0V4.5C0.00384375 2.01633 2.01633 0.00384375 4.5 0H12Z" fill="#4CAF50"/>
<path d="M9.50002 6.99998H3.50002C3.22388 6.99998 3 6.77611 3 6.49997C3 6.22383 3.22388 6 3.50002 6H9.50002C9.77616 6 10 6.22388 10 6.50002C10 6.77616 9.77616 6.99998 9.50002 6.99998Z" fill="#FAFAFA"/>
<path d="M6.50002 9.99998C6.22388 9.99998 6 9.77611 6 9.49997V3.49997C6 3.22388 6.22388 3 6.50002 3C6.77616 3 7.00003 3.22388 7.00003 3.50002V9.50002C6.99998 9.77616 6.77616 9.99998 6.50002 9.99998Z" fill="#FAFAFA"/>
<path d="M20.5 6.99998H15.5C15.2239 6.99998 15 6.77611 15 6.49997C15 6.22383 15.2239 6 15.5 6H20.5C20.7762 6 21 6.22388 21 6.50002C21 6.77616 20.7761 6.99998 20.5 6.99998Z" fill="#FAFAFA"/>
<path d="M8.49998 21C8.34801 21.0003 8.20411 20.9315 8.109 20.813L4.10901 15.813C3.93642 15.5973 3.97134 15.2826 4.18701 15.11C4.40268 14.9374 4.7174 14.9723 4.89 15.188L8.88998 20.188C9.06229 20.4038 9.02704 20.7184 8.81128 20.8907C8.72287 20.9613 8.61314 20.9999 8.49998 21Z" fill="#FAFAFA"/>
<path d="M4.5 21C4.22386 21.0001 3.99989 20.7764 3.9997 20.5003C3.99966 20.3868 4.03819 20.2767 4.10897 20.188L8.10895 15.188C8.28155 14.9723 8.59627 14.9374 8.81194 15.11C9.02761 15.2826 9.06253 15.5973 8.88994 15.813L4.89 20.813C4.79508 20.9312 4.65164 21 4.5 21Z" fill="#FAFAFA"/>
<path d="M19.5 21C19.3242 21 19.1613 20.9078 19.071 20.757L16.071 15.757C15.933 15.5178 16.0152 15.212 16.2544 15.0741C16.4875 14.9396 16.7852 15.0138 16.928 15.242L19.928 20.242C20.0705 20.4785 19.9942 20.7858 19.7577 20.9283C19.6799 20.9751 19.5908 20.9999 19.5 21Z" fill="#FAFAFA"/>
</svg>
