<svg width="181" height="151" viewBox="0 0 181 151" fill="none" xmlns="http://www.w3.org/2000/svg">
<path d="M91 85C94.8466 85 98.1774 83.6204 100.899 80.8983C103.62 78.1767 105 74.8467 105 70.9996C105 67.1538 103.62 63.8233 100.898 61.1008C98.1765 58.3796 94.8461 57 91 57C87.153 57 83.8231 58.3796 81.1016 61.1012C78.38 63.8228 77 67.1533 77 70.9996C77 74.8467 78.38 78.1772 81.102 80.8988C83.8239 83.6199 87.1543 85 91 85V85Z" fill="#DB3539"/>
<path d="M114.884 101.592C114.806 100.461 114.649 99.2274 114.418 97.9249C114.184 96.6126 113.883 95.372 113.523 94.2382C113.152 93.0663 112.646 91.9089 112.021 90.7999C111.372 89.6488 110.61 88.6464 109.755 87.8216C108.861 86.9587 107.766 86.2649 106.5 85.7589C105.239 85.2555 103.841 85.0004 102.345 85.0004C101.758 85.0004 101.19 85.2435 100.093 85.9638C99.418 86.4079 98.6284 86.9215 97.747 87.4895C96.9933 87.9739 95.9723 88.4277 94.7112 88.8385C93.4809 89.2401 92.2317 89.4438 90.9987 89.4438C89.7657 89.4438 88.5169 89.2401 87.2852 88.8385C86.0255 88.4281 85.0045 87.9743 84.2517 87.49C83.3787 86.9272 82.5886 86.4137 81.9034 85.9634C80.8078 85.2431 80.2394 85 79.652 85C78.1561 85 76.7585 85.2555 75.4975 85.7593C74.2324 86.2645 73.1373 86.9582 72.2423 87.822C71.3877 88.6473 70.6252 89.6492 69.9773 90.7999C69.3527 91.9089 68.8471 93.0658 68.4748 94.2386C68.1154 95.3725 67.8147 96.6126 67.5812 97.9249C67.3498 99.2256 67.1927 100.46 67.115 101.593C67.0386 102.703 67 103.856 67 105.02C67 108.049 67.9547 110.501 69.8373 112.31C71.6967 114.095 74.1569 115 77.1488 115H104.851C107.843 115 110.302 114.095 112.162 112.31C114.045 110.503 115 108.05 115 105.019C115 103.85 114.96 102.697 114.884 101.592V101.592Z" fill="#DB3539"/>
<g clip-path="url(#clip0_4_15)">
<path d="M126.587 76.9388C130.425 76.9388 133.749 75.5621 136.464 72.8461C139.18 70.1304 140.557 66.8077 140.557 62.9689C140.557 59.1316 139.18 55.8084 136.464 53.0918C133.748 50.3766 130.425 49 126.587 49C122.748 49 119.425 50.3766 116.71 53.0923C113.994 55.8079 112.617 59.1311 112.617 62.9689C112.617 66.8077 113.994 70.1309 116.71 72.8465C119.426 75.5617 122.749 76.9388 126.587 76.9388V76.9388Z" fill="#DB3539"/>
<path d="M151.03 93.599C150.952 92.4689 150.793 91.236 150.56 89.9342C150.325 88.6226 150.022 87.3827 149.659 86.2495C149.284 85.0782 148.774 83.9215 148.144 82.813C147.49 81.6625 146.722 80.6607 145.86 79.8363C144.959 78.9738 143.855 78.2804 142.579 77.7746C141.307 77.2715 139.898 77.0166 138.39 77.0166C137.798 77.0166 137.225 77.2596 136.12 77.9795C135.439 78.4234 134.643 78.9367 133.754 79.5044C132.995 79.9885 131.965 80.4421 130.694 80.8527C129.454 81.2541 128.194 81.4576 126.951 81.4576C125.708 81.4576 124.449 81.2541 123.208 80.8527C121.938 80.4425 120.908 79.9889 120.15 79.5048C119.269 78.9424 118.473 78.4291 117.782 77.9791C116.678 77.2591 116.105 77.0162 115.513 77.0162C114.005 77.0162 112.596 77.2715 111.324 77.7751C110.049 78.28 108.945 78.9734 108.043 79.8367C107.181 80.6615 106.412 81.6629 105.759 82.813C105.13 83.9215 104.62 85.0777 104.245 86.2499C103.882 87.3832 103.579 88.6226 103.344 89.9342C103.11 91.2343 102.952 92.4675 102.874 93.6003C102.797 94.7101 102.758 95.862 102.758 97.0253C102.758 100.053 103.72 102.504 105.618 104.312C107.493 106.095 109.973 107 112.989 107H140.916C143.932 107 146.412 106.096 148.287 104.312C150.185 102.505 151.147 100.054 151.147 97.0249C151.147 95.8562 151.108 94.7035 151.03 93.599V93.599Z" fill="#DB3539"/>
</g>
<g clip-path="url(#clip1_4_15)">
<path d="M53.5867 76.9388C57.425 76.9388 60.7486 75.5621 63.4643 72.8461C66.1799 70.1304 67.5566 66.8077 67.5566 62.9689C67.5566 59.1316 66.1799 55.8084 63.4639 53.0918C60.7478 50.3766 57.4245 49 53.5867 49C49.748 49 46.4252 50.3766 43.7095 53.0923C40.9939 55.8079 39.6168 59.1311 39.6168 62.9689C39.6168 66.8077 40.9939 70.1309 43.71 72.8465C46.4261 75.5617 49.7493 76.9388 53.5867 76.9388V76.9388Z" fill="#DB3539"/>
<path d="M78.0302 93.599C77.9519 92.4689 77.7935 91.236 77.5603 89.9342C77.3249 88.6226 77.0218 87.3827 76.6589 86.2495C76.2841 85.0782 75.7743 83.9215 75.1442 82.813C74.4902 81.6625 73.722 80.6607 72.86 79.8363C71.9586 78.9738 70.855 78.2804 69.5788 77.7746C68.3071 77.2715 66.8977 77.0166 65.3901 77.0166C64.798 77.0166 64.2254 77.2596 63.1196 77.9795C62.439 78.4234 61.6429 78.9367 60.7544 79.5044C59.9946 79.9885 58.9653 80.4421 57.694 80.8527C56.4537 81.2541 55.1943 81.4576 53.9513 81.4576C52.7083 81.4576 51.4494 81.2541 50.2077 80.8527C48.9377 80.4425 47.9085 79.9889 47.1496 79.5048C46.2694 78.9424 45.4729 78.4291 44.7822 77.9791C43.6777 77.2591 43.1046 77.0162 42.5126 77.0162C41.0045 77.0162 39.5956 77.2715 38.3243 77.7751C37.049 78.28 35.9449 78.9734 35.0426 79.8367C34.1811 80.6615 33.4125 81.6629 32.7593 82.813C32.1296 83.9215 31.6199 85.0777 31.2446 86.2499C30.8822 87.3832 30.5791 88.6226 30.3437 89.9342C30.1105 91.2343 29.9521 92.4675 29.8737 93.6003C29.7968 94.7101 29.7578 95.862 29.7578 97.0253C29.7578 100.053 30.7203 102.504 32.6182 104.312C34.4926 106.095 36.9729 107 39.989 107H67.9163C70.9324 107 73.4118 106.096 75.2867 104.312C77.185 102.505 78.1475 100.054 78.1475 97.0249C78.147 95.8562 78.1077 94.7035 78.0302 93.599V93.599Z" fill="#DB3539"/>
</g>
<path d="M163 9C156.383 9 151 14.3829 151 21C151 27.6171 156.383 33 163 33C169.617 33 175 27.6171 175 21C175 14.3829 169.617 9 163 9Z" fill="#DB3539"/>
<path d="M169.082 18.457L162.582 24.9569C162.387 25.1519 162.131 25.2501 161.875 25.2501C161.619 25.2501 161.363 25.1519 161.168 24.9569L157.918 21.707C157.527 21.316 157.527 20.684 157.918 20.293C158.309 19.9019 158.941 19.9019 159.332 20.293L161.875 22.836L167.668 17.0431C168.059 16.652 168.691 16.652 169.082 17.0431C169.473 17.434 169.473 18.0659 169.082 18.457V18.457Z" fill="#FAFAFA"/>
<rect x="0.5" y="0.5" width="180" height="150" rx="19.5" stroke="#DB3539"/>
<defs>
<clipPath id="clip0_4_15">
<rect width="58" height="58" fill="white" transform="translate(98 49)"/>
</clipPath>
<clipPath id="clip1_4_15">
<rect width="58" height="58" fill="white" transform="translate(25 49)"/>
</clipPath>
</defs>
</svg>
