<svg width="55" height="24" viewBox="0 0 55 24" fill="none" xmlns="http://www.w3.org/2000/svg">
<path d="M12 23.0705C18.1141 23.0705 23.0705 18.114 23.0705 12C23.0705 5.88595 18.1141 0.929529 12 0.929529C5.88595 0.929529 0.929535 5.88595 0.929535 12C0.929535 18.114 5.88595 23.0705 12 23.0705Z" fill="#D92028"/>
<path d="M12 24C5.38373 24 0 18.6172 0 12C0 5.38373 5.38373 0 12 0C18.6172 0 24 5.38373 24 12C24 18.6172 18.6172 24 12 24ZM12 1.85902C6.40805 1.85902 1.85902 6.40805 1.85902 12C1.85902 17.592 6.40805 22.141 12 22.141C17.592 22.141 22.141 17.591 22.141 12C22.141 6.40805 17.592 1.85902 12 1.85902Z" fill="#D92028"/>
<path d="M10.5507 16.4156C10.3017 16.4156 10.0637 16.3161 9.88798 16.1377L6.45809 12.652C6.09837 12.2858 6.10301 11.6983 6.46925 11.3377C6.83548 10.9789 7.42386 10.9826 7.78358 11.3488L10.5238 14.1336L16.1929 7.89011C16.5396 7.50996 17.1271 7.483 17.5054 7.82692C17.8855 8.17178 17.9134 8.75922 17.5685 9.14032L11.2386 16.1116C11.0667 16.3012 10.825 16.4109 10.5694 16.4165C10.5628 16.4156 10.5573 16.4156 10.5507 16.4156Z" fill="white"/>
<path d="M38.03 13.6C38.03 13.11 37.93 12.66 37.75 12.24C37.57 11.82 37.32 11.46 37.01 11.16C36.69 10.86 36.32 10.63 35.9 10.46C35.47 10.29 35.01 10.2 34.53 10.2H32.75V17H34.53C35.01 17 35.47 16.92 35.9 16.75C36.32 16.58 36.69 16.34 37.01 16.04C37.32 15.74 37.57 15.39 37.75 14.97C37.93 14.55 38.03 14.1 38.03 13.6ZM37.35 13.6C37.35 14.38 37.07 15.03 36.53 15.54C35.99 16.05 35.33 16.3 34.55 16.3H33.45V10.9H34.55C35.33 10.9 35.99 11.16 36.53 11.66C37.07 12.18 37.35 12.83 37.35 13.6ZM42.8344 14.78C42.8344 15.22 42.6744 15.59 42.3644 15.9C42.0444 16.22 41.6744 16.37 41.2344 16.37C40.7944 16.37 40.4144 16.22 40.1044 15.9C39.7844 15.59 39.6344 15.22 39.6344 14.78C39.6344 14.34 39.7844 13.97 40.1044 13.65C40.4144 13.34 40.7944 13.18 41.2344 13.18C41.6744 13.18 42.0444 13.34 42.3644 13.65C42.6744 13.97 42.8344 14.34 42.8344 14.78ZM43.5344 14.78C43.5344 14.15 43.3044 13.61 42.8544 13.16C42.4044 12.71 41.8644 12.48 41.2344 12.48C40.5944 12.48 40.0544 12.71 39.6044 13.16C39.1544 13.61 38.9344 14.15 38.9344 14.78C38.9344 15.42 39.1544 15.96 39.6044 16.4C40.0544 16.85 40.6044 17.07 41.2344 17.07C41.8544 17.07 42.4044 16.85 42.8544 16.4C43.3044 15.96 43.5344 15.42 43.5344 14.78ZM47.7724 17H48.4724V14.25C48.4724 13.74 48.3324 13.33 48.0724 13.02C47.9324 12.86 47.7724 12.74 47.5824 12.65C47.3824 12.56 47.1324 12.51 46.8224 12.51C46.5024 12.51 46.2324 12.6 45.9924 12.76C45.7624 12.91 45.5724 13.11 45.4324 13.36V12.6H44.7324V17H45.4324V15.16C45.4324 14.6 45.5324 14.16 45.7424 13.83C45.8624 13.65 46.0124 13.5 46.2024 13.38C46.3824 13.27 46.6324 13.21 46.9324 13.21C47.2324 13.21 47.4424 13.32 47.5724 13.52C47.7024 13.72 47.7724 13.97 47.7724 14.25V17ZM54.1203 14.7C54.1203 14.1 53.8803 13.58 53.4203 13.13C52.9703 12.7 52.4303 12.48 51.8203 12.48C51.1803 12.48 50.6403 12.71 50.1903 13.16C49.7403 13.61 49.5203 14.15 49.5203 14.78C49.5203 15.42 49.7403 15.96 50.1903 16.4C50.4003 16.61 50.6403 16.77 50.9203 16.89C51.2003 17.01 51.5303 17.07 51.9203 17.07C52.3103 17.07 52.6903 16.95 53.0703 16.71C53.4503 16.47 53.7303 16.13 53.9203 15.71H53.1203C52.9603 15.92 52.7703 16.08 52.5403 16.2C52.3103 16.32 52.0703 16.37 51.8203 16.37C51.4403 16.37 51.1003 16.25 50.8003 16C50.5003 15.76 50.3103 15.45 50.2503 15.07H54.1203V14.7ZM53.3803 14.47H50.2603C50.3003 14.29 50.3703 14.12 50.4703 13.96C50.7903 13.44 51.2403 13.18 51.8203 13.18C52.1903 13.18 52.5203 13.3 52.8103 13.54C53.1103 13.79 53.2903 14.1 53.3803 14.47Z" fill="#1D3A37" fill-opacity="0.35"/>
</svg>
