<svg width="179" height="153" viewBox="0 0 179 153" fill="none" xmlns="http://www.w3.org/2000/svg">
<g opacity="0.7">
<g opacity="0.7">
<path opacity="0.7" d="M1.95003 3.40527C3.02699 3.40527 3.90004 2.64299 3.90004 1.70265C3.90004 0.762307 3.02699 0 1.95003 0C0.873061 0 1.52588e-05 0.762307 1.52588e-05 1.70265C1.52588e-05 2.64299 0.873061 3.40527 1.95003 3.40527Z" fill="#614A89"/>
<path opacity="0.7" d="M19.4448 3.40527C20.5218 3.40527 21.3949 2.64299 21.3949 1.70265C21.3949 0.762307 20.5218 0 19.4448 0C18.3678 0 17.4948 0.762307 17.4948 1.70265C17.4948 2.64299 18.3678 3.40527 19.4448 3.40527Z" fill="#614A89"/>
<path opacity="0.7" d="M36.9531 3.40527C38.0301 3.40527 38.9031 2.64299 38.9031 1.70265C38.9031 0.762307 38.0301 0 36.9531 0C35.8762 0 35.0031 0.762307 35.0031 1.70265C35.0031 2.64299 35.8762 3.40527 36.9531 3.40527Z" fill="#614A89"/>
<path opacity="0.7" d="M54.4472 3.40527C55.5241 3.40527 56.3972 2.64299 56.3972 1.70265C56.3972 0.762307 55.5241 0 54.4472 0C53.3702 0 52.4971 0.762307 52.4971 1.70265C52.4971 2.64299 53.3702 3.40527 54.4472 3.40527Z" fill="#614A89"/>
<path opacity="0.7" d="M71.9555 3.40527C73.0325 3.40527 73.9055 2.64299 73.9055 1.70265C73.9055 0.762307 73.0325 0 71.9555 0C70.8785 0 70.0055 0.762307 70.0055 1.70265C70.0055 2.64299 70.8785 3.40527 71.9555 3.40527Z" fill="#614A89"/>
<path opacity="0.7" d="M91.4003 1.70265C91.4003 2.6391 90.5228 3.40527 89.4502 3.40527C88.3777 3.40527 87.5002 2.65126 87.5002 1.70265C87.5002 0.766197 88.3777 0 89.4502 0C90.5228 0 91.4003 0.754035 91.4003 1.70265Z" fill="#614A89"/>
<path opacity="0.7" d="M106.944 3.40527C108.021 3.40527 108.894 2.64299 108.894 1.70265C108.894 0.762307 108.021 0 106.944 0C105.867 0 104.994 0.762307 104.994 1.70265C104.994 2.64299 105.867 3.40527 106.944 3.40527Z" fill="#614A89"/>
<path opacity="0.7" d="M126.389 1.70265C126.389 2.6391 125.512 3.40527 124.439 3.40527C123.367 3.40527 122.489 2.65126 122.489 1.70265C122.489 0.766197 123.367 0 124.439 0C125.525 0 126.389 0.754035 126.389 1.70265Z" fill="#614A89"/>
<path opacity="0.7" d="M141.947 3.40527C143.024 3.40527 143.897 2.64299 143.897 1.70265C143.897 0.762307 143.024 0 141.947 0C140.87 0 139.997 0.762307 139.997 1.70265C139.997 2.64299 140.87 3.40527 141.947 3.40527Z" fill="#614A89"/>
<path opacity="0.7" d="M161.391 1.70265C161.391 2.6391 160.514 3.40527 159.441 3.40527C158.369 3.40527 157.491 2.65126 157.491 1.70265C157.491 0.766197 158.369 0 159.441 0C160.528 0 161.391 0.754035 161.391 1.70265Z" fill="#614A89"/>
<path opacity="0.7" d="M176.95 3.40527C178.027 3.40527 178.9 2.64299 178.9 1.70265C178.9 0.762307 178.027 0 176.95 0C175.873 0 175 0.762307 175 1.70265C175 2.64299 175.873 3.40527 176.95 3.40527Z" fill="#614A89"/>
</g>
<g opacity="0.7">
<path opacity="0.7" d="M1.95001 16.98C3.02698 16.98 3.90002 16.2176 3.90002 15.2771C3.90002 14.3366 3.02698 13.5742 1.95001 13.5742C0.873046 13.5742 0 14.3366 0 15.2771C0 16.2176 0.873046 16.98 1.95001 16.98Z" fill="#614A89"/>
<path opacity="0.7" d="M19.4447 16.9797C20.5217 16.9797 21.3948 16.2173 21.3948 15.2769C21.3948 14.3364 20.5217 13.574 19.4447 13.574C18.3678 13.574 17.4948 14.3364 17.4948 15.2769C17.4948 16.2173 18.3678 16.9797 19.4447 16.9797Z" fill="#614A89"/>
<path opacity="0.7" d="M36.9531 16.9797C38.03 16.9797 38.9031 16.2173 38.9031 15.2769C38.9031 14.3364 38.03 13.574 36.9531 13.574C35.8761 13.574 35.0031 14.3364 35.0031 15.2769C35.0031 16.2173 35.8761 16.9797 36.9531 16.9797Z" fill="#614A89"/>
<path opacity="0.7" d="M54.4471 16.9797C55.524 16.9797 56.3971 16.2173 56.3971 15.2769C56.3971 14.3364 55.524 13.574 54.4471 13.574C53.3701 13.574 52.4971 14.3364 52.4971 15.2769C52.4971 16.2173 53.3701 16.9797 54.4471 16.9797Z" fill="#614A89"/>
<path opacity="0.7" d="M71.9554 16.9797C73.0324 16.9797 73.9054 16.2173 73.9054 15.2769C73.9054 14.3364 73.0324 13.574 71.9554 13.574C70.8785 13.574 70.0055 14.3364 70.0055 15.2769C70.0055 16.2173 70.8785 16.9797 71.9554 16.9797Z" fill="#614A89"/>
<path opacity="0.7" d="M91.4001 15.2769C91.4001 16.2134 90.5227 16.9797 89.4502 16.9797C88.3777 16.9797 87.5002 16.2256 87.5002 15.2769C87.5002 14.3403 88.3777 13.574 89.4502 13.574C90.5227 13.5861 91.4001 14.3403 91.4001 15.2769Z" fill="#614A89"/>
<path opacity="0.7" d="M106.944 16.9797C108.021 16.9797 108.894 16.2173 108.894 15.2769C108.894 14.3364 108.021 13.574 106.944 13.574C105.867 13.574 104.994 14.3364 104.994 15.2769C104.994 16.2173 105.867 16.9797 106.944 16.9797Z" fill="#614A89"/>
<path opacity="0.7" d="M126.389 15.2769C126.389 16.2134 125.512 16.9797 124.439 16.9797C123.367 16.9797 122.489 16.2256 122.489 15.2769C122.489 14.3403 123.367 13.574 124.439 13.574C125.525 13.5861 126.389 14.3403 126.389 15.2769Z" fill="#614A89"/>
<path opacity="0.7" d="M141.947 16.9797C143.024 16.9797 143.897 16.2173 143.897 15.2769C143.897 14.3364 143.024 13.574 141.947 13.574C140.87 13.574 139.997 14.3364 139.997 15.2769C139.997 16.2173 140.87 16.9797 141.947 16.9797Z" fill="#614A89"/>
<path opacity="0.7" d="M161.391 15.2769C161.391 16.2134 160.514 16.9797 159.441 16.9797C158.369 16.9797 157.491 16.2256 157.491 15.2769C157.491 14.3403 158.369 13.574 159.441 13.574C160.528 13.5861 161.391 14.3403 161.391 15.2769Z" fill="#614A89"/>
<path opacity="0.7" d="M176.95 16.9797C178.027 16.9797 178.9 16.2173 178.9 15.2769C178.9 14.3364 178.027 13.574 176.95 13.574C175.873 13.574 175 14.3364 175 15.2769C175 16.2173 175.873 16.9797 176.95 16.9797Z" fill="#614A89"/>
</g>
<g opacity="0.7">
<path opacity="0.7" d="M3.90002 28.8632C3.90002 29.7998 3.02252 30.5662 1.95001 30.5662C0.877501 30.5662 0 29.7998 0 28.8632C0 27.9265 0.863572 27.1602 1.95001 27.1602C3.02252 27.1723 3.90002 27.9265 3.90002 28.8632Z" fill="#614A89"/>
<path opacity="0.7" d="M21.3948 28.8632C21.3948 29.7998 20.5312 30.5662 19.4447 30.5662C18.3722 30.5662 17.4948 29.7998 17.4948 28.8632C17.4948 27.9265 18.3722 27.1602 19.4447 27.1602C20.5312 27.1723 21.3948 27.9265 21.3948 28.8632Z" fill="#614A89"/>
<path opacity="0.7" d="M38.8889 28.8632C38.8889 29.7998 38.0114 30.5662 36.9388 30.5662C35.8663 30.5662 34.9888 29.7998 34.9888 28.8632C34.9888 27.9265 35.8524 27.1602 36.9388 27.1602C38.0253 27.1723 38.8889 27.9265 38.8889 28.8632Z" fill="#614A89"/>
<path opacity="0.7" d="M56.3971 28.8632C56.3971 29.7998 55.5336 30.5662 54.4471 30.5662C53.3746 30.5662 52.4971 29.7998 52.4971 28.8632C52.4971 27.9265 53.3746 27.1602 54.4471 27.1602C55.5196 27.1723 56.3971 27.9265 56.3971 28.8632Z" fill="#614A89"/>
<path opacity="0.7" d="M73.8919 28.8632C73.8919 29.7998 73.0144 30.5662 71.9419 30.5662C70.8694 30.5662 69.9919 29.7998 69.9919 28.8632C69.9919 27.9265 70.8554 27.1602 71.9419 27.1602C73.0283 27.1723 73.8919 27.9265 73.8919 28.8632Z" fill="#614A89"/>
<path opacity="0.7" d="M91.4001 28.8632C91.4001 29.7998 90.5226 30.5662 89.4502 30.5662C88.3777 30.5662 87.5002 29.7998 87.5002 28.8632C87.5002 27.9265 88.3777 27.1602 89.4502 27.1602C90.5226 27.1723 91.4001 27.9265 91.4001 28.8632Z" fill="#614A89"/>
<path opacity="0.7" d="M108.894 28.8632C108.894 29.7998 108.017 30.5662 106.944 30.5662C105.872 30.5662 104.994 29.7998 104.994 28.8632C104.994 27.9265 105.858 27.1602 106.944 27.1602C108.017 27.1723 108.894 27.9265 108.894 28.8632Z" fill="#614A89"/>
<path opacity="0.7" d="M126.389 28.8632C126.389 29.7998 125.512 30.5662 124.439 30.5662C123.366 30.5662 122.489 29.7998 122.489 28.8632C122.489 27.9265 123.366 27.1602 124.439 27.1602C125.525 27.1723 126.389 27.9265 126.389 28.8632Z" fill="#614A89"/>
<path opacity="0.7" d="M143.897 28.8632C143.897 29.7998 143.02 30.5662 141.947 30.5662C140.875 30.5662 139.997 29.7998 139.997 28.8632C139.997 27.9265 140.861 27.1602 141.947 27.1602C143.02 27.1723 143.897 27.9265 143.897 28.8632Z" fill="#614A89"/>
<path opacity="0.7" d="M161.391 28.8632C161.391 29.7998 160.514 30.5662 159.441 30.5662C158.369 30.5662 157.491 29.7998 157.491 28.8632C157.491 27.9265 158.369 27.1602 159.441 27.1602C160.528 27.1723 161.391 27.9265 161.391 28.8632Z" fill="#614A89"/>
<path opacity="0.7" d="M178.9 28.8632C178.9 29.7998 178.036 30.5662 176.95 30.5662C175.863 30.5662 175 29.7998 175 28.8632C175 27.9265 175.863 27.1602 176.95 27.1602C178.036 27.1602 178.9 27.9265 178.9 28.8632Z" fill="#614A89"/>
</g>
<g opacity="0.7">
<path opacity="0.7" d="M3.90002 42.4492C3.90002 43.3858 3.02252 44.1521 1.95001 44.1521C0.877501 44.1521 0 43.398 0 42.4492C0 41.5126 0.863572 40.7463 1.95001 40.7463C3.02252 40.7463 3.90002 41.5126 3.90002 42.4492Z" fill="#614A89"/>
<path opacity="0.7" d="M21.3948 42.449C21.3948 43.3854 20.5312 44.1516 19.4447 44.1516C18.3722 44.1516 17.4948 43.3976 17.4948 42.449C17.4948 41.5125 18.3722 40.7463 19.4447 40.7463C20.5312 40.7463 21.3948 41.5125 21.3948 42.449Z" fill="#614A89"/>
<path opacity="0.7" d="M38.8889 42.449C38.8889 43.3854 38.0114 44.1516 36.9388 44.1516C35.8663 44.1516 34.9888 43.3976 34.9888 42.449C34.9888 41.5125 35.8524 40.7463 36.9388 40.7463C38.0253 40.7463 38.8889 41.5125 38.8889 42.449Z" fill="#614A89"/>
<path opacity="0.7" d="M56.3971 42.449C56.3971 43.3854 55.5336 44.1516 54.4471 44.1516C53.3746 44.1516 52.4971 43.3976 52.4971 42.449C52.4971 41.5125 53.3746 40.7463 54.4471 40.7463C55.5196 40.7463 56.3971 41.5125 56.3971 42.449Z" fill="#614A89"/>
<path opacity="0.7" d="M73.8919 42.449C73.8919 43.3854 73.0144 44.1516 71.9419 44.1516C70.8694 44.1516 69.9919 43.3976 69.9919 42.449C69.9919 41.5125 70.8554 40.7463 71.9419 40.7463C73.0283 40.7463 73.8919 41.5125 73.8919 42.449Z" fill="#614A89"/>
<path opacity="0.7" d="M91.4001 42.449C91.4001 43.3854 90.5226 44.1516 89.4502 44.1516C88.3777 44.1516 87.5002 43.3976 87.5002 42.449C87.5002 41.5125 88.3777 40.7463 89.4502 40.7463C90.5226 40.7463 91.4001 41.5125 91.4001 42.449Z" fill="#614A89"/>
<path opacity="0.7" d="M108.894 42.449C108.894 43.3854 108.017 44.1516 106.944 44.1516C105.872 44.1516 104.994 43.3976 104.994 42.449C104.994 41.5125 105.858 40.7463 106.944 40.7463C108.017 40.7463 108.894 41.5125 108.894 42.449Z" fill="#614A89"/>
<path opacity="0.7" d="M126.389 42.449C126.389 43.3854 125.512 44.1516 124.439 44.1516C123.366 44.1516 122.489 43.3976 122.489 42.449C122.489 41.5125 123.366 40.7463 124.439 40.7463C125.525 40.7463 126.389 41.5125 126.389 42.449Z" fill="#614A89"/>
<path opacity="0.7" d="M143.897 42.449C143.897 43.3854 143.02 44.1516 141.947 44.1516C140.875 44.1516 139.997 43.3976 139.997 42.449C139.997 41.5125 140.861 40.7463 141.947 40.7463C143.02 40.7463 143.897 41.5125 143.897 42.449Z" fill="#614A89"/>
<path opacity="0.7" d="M161.391 42.449C161.391 43.3854 160.514 44.1516 159.441 44.1516C158.369 44.1516 157.491 43.3976 157.491 42.449C157.491 41.5125 158.369 40.7463 159.441 40.7463C160.528 40.7463 161.391 41.5125 161.391 42.449Z" fill="#614A89"/>
<path opacity="0.7" d="M178.9 42.449C178.9 43.3854 178.036 44.1516 176.95 44.1516C175.863 44.1516 175 43.3976 175 42.449C175 41.5125 175.863 40.7463 176.95 40.7463C178.036 40.7463 178.9 41.5125 178.9 42.449Z" fill="#614A89"/>
</g>
<g opacity="0.7">
<path opacity="0.7" d="M1.95001 57.7393C3.02698 57.7393 3.90002 56.9769 3.90002 56.0364C3.90002 55.0959 3.02698 54.3335 1.95001 54.3335C0.873046 54.3335 0 55.0959 0 56.0364C0 56.9769 0.873046 57.7393 1.95001 57.7393Z" fill="#614A89"/>
<path opacity="0.7" d="M19.4447 57.7385C20.5217 57.7385 21.3948 56.9762 21.3948 56.0358C21.3948 55.0954 20.5217 54.333 19.4447 54.333C18.3678 54.333 17.4948 55.0954 17.4948 56.0358C17.4948 56.9762 18.3678 57.7385 19.4447 57.7385Z" fill="#614A89"/>
<path opacity="0.7" d="M36.9531 57.7385C38.0301 57.7385 38.9031 56.9762 38.9031 56.0358C38.9031 55.0954 38.0301 54.333 36.9531 54.333C35.8761 54.333 35.0031 55.0954 35.0031 56.0358C35.0031 56.9762 35.8761 57.7385 36.9531 57.7385Z" fill="#614A89"/>
<path opacity="0.7" d="M54.4471 57.7385C55.5241 57.7385 56.3971 56.9762 56.3971 56.0358C56.3971 55.0954 55.5241 54.333 54.4471 54.333C53.3702 54.333 52.4971 55.0954 52.4971 56.0358C52.4971 56.9762 53.3702 57.7385 54.4471 57.7385Z" fill="#614A89"/>
<path opacity="0.7" d="M71.9554 57.7385C73.0323 57.7385 73.9054 56.9762 73.9054 56.0358C73.9054 55.0954 73.0323 54.333 71.9554 54.333C70.8785 54.333 70.0055 55.0954 70.0055 56.0358C70.0055 56.9762 70.8785 57.7385 71.9554 57.7385Z" fill="#614A89"/>
<path opacity="0.7" d="M91.4001 56.0358C91.4001 56.9723 90.5226 57.7385 89.4502 57.7385C88.3777 57.7385 87.5002 56.9845 87.5002 56.0358C87.5002 55.0871 88.3777 54.333 89.4502 54.333C90.5226 54.333 91.4001 55.0992 91.4001 56.0358Z" fill="#614A89"/>
<path opacity="0.7" d="M106.944 57.7385C108.021 57.7385 108.894 56.9762 108.894 56.0358C108.894 55.0954 108.021 54.333 106.944 54.333C105.867 54.333 104.994 55.0954 104.994 56.0358C104.994 56.9762 105.867 57.7385 106.944 57.7385Z" fill="#614A89"/>
<path opacity="0.7" d="M126.389 56.0358C126.389 56.9723 125.512 57.7385 124.439 57.7385C123.366 57.7385 122.489 56.9845 122.489 56.0358C122.489 55.0871 123.366 54.333 124.439 54.333C125.525 54.333 126.389 55.0992 126.389 56.0358Z" fill="#614A89"/>
<path opacity="0.7" d="M141.947 57.7385C143.024 57.7385 143.897 56.9762 143.897 56.0358C143.897 55.0954 143.024 54.333 141.947 54.333C140.87 54.333 139.997 55.0954 139.997 56.0358C139.997 56.9762 140.87 57.7385 141.947 57.7385Z" fill="#614A89"/>
<path opacity="0.7" d="M161.391 56.0358C161.391 56.9723 160.514 57.7385 159.441 57.7385C158.369 57.7385 157.491 56.9845 157.491 56.0358C157.491 55.0871 158.369 54.333 159.441 54.333C160.528 54.333 161.391 55.0992 161.391 56.0358Z" fill="#614A89"/>
<path opacity="0.7" d="M176.95 57.7385C178.027 57.7385 178.9 56.9762 178.9 56.0358C178.9 55.0954 178.027 54.333 176.95 54.333C175.873 54.333 175 55.0954 175 56.0358C175 56.9762 175.873 57.7385 176.95 57.7385Z" fill="#614A89"/>
</g>
<g opacity="0.7">
<path opacity="0.7" d="M1.95001 71.3252C3.02698 71.3252 3.90002 70.5627 3.90002 69.6222C3.90002 68.6817 3.02698 67.9192 1.95001 67.9192C0.873046 67.9192 0 68.6817 0 69.6222C0 70.5627 0.873046 71.3252 1.95001 71.3252Z" fill="#614A89"/>
<path opacity="0.7" d="M19.4447 71.3245C20.5217 71.3245 21.3948 70.5621 21.3948 69.6216C21.3948 68.6811 20.5217 67.9187 19.4447 67.9187C18.3678 67.9187 17.4948 68.6811 17.4948 69.6216C17.4948 70.5621 18.3678 71.3245 19.4447 71.3245Z" fill="#614A89"/>
<path opacity="0.7" d="M36.9531 71.3245C38.0301 71.3245 38.9031 70.5621 38.9031 69.6216C38.9031 68.6811 38.0301 67.9187 36.9531 67.9187C35.8761 67.9187 35.0031 68.6811 35.0031 69.6216C35.0031 70.5621 35.8761 71.3245 36.9531 71.3245Z" fill="#614A89"/>
<path opacity="0.7" d="M54.4471 71.3245C55.5241 71.3245 56.3971 70.5621 56.3971 69.6216C56.3971 68.6811 55.5241 67.9187 54.4471 67.9187C53.3702 67.9187 52.4971 68.6811 52.4971 69.6216C52.4971 70.5621 53.3702 71.3245 54.4471 71.3245Z" fill="#614A89"/>
<path opacity="0.7" d="M71.9554 71.3245C73.0323 71.3245 73.9054 70.5621 73.9054 69.6216C73.9054 68.6811 73.0323 67.9187 71.9554 67.9187C70.8785 67.9187 70.0055 68.6811 70.0055 69.6216C70.0055 70.5621 70.8785 71.3245 71.9554 71.3245Z" fill="#614A89"/>
<path opacity="0.7" d="M91.4001 69.6216C91.4001 70.5582 90.5226 71.3245 89.4502 71.3245C88.3777 71.3245 87.5002 70.5582 87.5002 69.6216C87.5002 68.685 88.3777 67.9187 89.4502 67.9187C90.5226 67.9187 91.4001 68.6729 91.4001 69.6216Z" fill="#614A89"/>
<path opacity="0.7" d="M106.944 71.3245C108.021 71.3245 108.894 70.5621 108.894 69.6216C108.894 68.6811 108.021 67.9187 106.944 67.9187C105.867 67.9187 104.994 68.6811 104.994 69.6216C104.994 70.5621 105.867 71.3245 106.944 71.3245Z" fill="#614A89"/>
<path opacity="0.7" d="M126.389 69.6216C126.389 70.5582 125.512 71.3245 124.439 71.3245C123.366 71.3245 122.489 70.5582 122.489 69.6216C122.489 68.685 123.366 67.9187 124.439 67.9187C125.525 67.9187 126.389 68.6729 126.389 69.6216Z" fill="#614A89"/>
<path opacity="0.7" d="M141.947 71.3245C143.024 71.3245 143.897 70.5621 143.897 69.6216C143.897 68.6811 143.024 67.9187 141.947 67.9187C140.87 67.9187 139.997 68.6811 139.997 69.6216C139.997 70.5621 140.87 71.3245 141.947 71.3245Z" fill="#614A89"/>
<path opacity="0.7" d="M161.391 69.6216C161.391 70.5582 160.514 71.3245 159.441 71.3245C158.369 71.3245 157.491 70.5582 157.491 69.6216C157.491 68.685 158.369 67.9187 159.441 67.9187C160.528 67.9187 161.391 68.6729 161.391 69.6216Z" fill="#614A89"/>
<path opacity="0.7" d="M176.95 71.3245C178.027 71.3245 178.9 70.5621 178.9 69.6216C178.9 68.6811 178.027 67.9187 176.95 67.9187C175.873 67.9187 175 68.6811 175 69.6216C175 70.5621 175.873 71.3245 176.95 71.3245Z" fill="#614A89"/>
</g>
<g opacity="0.7">
<path opacity="0.7" d="M1.95001 84.8992C3.02698 84.8992 3.90002 84.1367 3.90002 83.1963C3.90002 82.2558 3.02698 81.4934 1.95001 81.4934C0.873046 81.4934 0 82.2558 0 83.1963C0 84.1367 0.873046 84.8992 1.95001 84.8992Z" fill="#614A89"/>
<path opacity="0.7" d="M19.4447 84.8992C20.5217 84.8992 21.3948 84.1367 21.3948 83.1963C21.3948 82.2558 20.5217 81.4934 19.4447 81.4934C18.3678 81.4934 17.4948 82.2558 17.4948 83.1963C17.4948 84.1367 18.3678 84.8992 19.4447 84.8992Z" fill="#614A89"/>
<path opacity="0.7" d="M36.9531 84.8992C38.0301 84.8992 38.9031 84.1367 38.9031 83.1963C38.9031 82.2558 38.0301 81.4934 36.9531 81.4934C35.8761 81.4934 35.0031 82.2558 35.0031 83.1963C35.0031 84.1367 35.8761 84.8992 36.9531 84.8992Z" fill="#614A89"/>
<path opacity="0.7" d="M54.4471 84.8992C55.5241 84.8992 56.3971 84.1367 56.3971 83.1963C56.3971 82.2558 55.5241 81.4934 54.4471 81.4934C53.3702 81.4934 52.4971 82.2558 52.4971 83.1963C52.4971 84.1367 53.3702 84.8992 54.4471 84.8992Z" fill="#614A89"/>
<path opacity="0.7" d="M71.9554 84.8992C73.0323 84.8992 73.9054 84.1367 73.9054 83.1963C73.9054 82.2558 73.0323 81.4934 71.9554 81.4934C70.8785 81.4934 70.0055 82.2558 70.0055 83.1963C70.0055 84.1367 70.8785 84.8992 71.9554 84.8992Z" fill="#614A89"/>
<path opacity="0.7" d="M91.4001 83.1963C91.4001 84.1328 90.5226 84.8992 89.4502 84.8992C88.3777 84.8992 87.5002 84.145 87.5002 83.1963C87.5002 82.2475 88.3777 81.4934 89.4502 81.4934C90.5226 81.5056 91.4001 82.2597 91.4001 83.1963Z" fill="#614A89"/>
<path opacity="0.7" d="M106.944 84.8992C108.021 84.8992 108.894 84.1367 108.894 83.1963C108.894 82.2558 108.021 81.4934 106.944 81.4934C105.867 81.4934 104.994 82.2558 104.994 83.1963C104.994 84.1367 105.867 84.8992 106.944 84.8992Z" fill="#614A89"/>
<path opacity="0.7" d="M126.389 83.1963C126.389 84.1328 125.512 84.8992 124.439 84.8992C123.366 84.8992 122.489 84.145 122.489 83.1963C122.489 82.2475 123.366 81.4934 124.439 81.4934C125.525 81.5056 126.389 82.2597 126.389 83.1963Z" fill="#614A89"/>
<path opacity="0.7" d="M141.947 84.8992C143.024 84.8992 143.897 84.1367 143.897 83.1963C143.897 82.2558 143.024 81.4934 141.947 81.4934C140.87 81.4934 139.997 82.2558 139.997 83.1963C139.997 84.1367 140.87 84.8992 141.947 84.8992Z" fill="#614A89"/>
<path opacity="0.7" d="M161.391 83.1963C161.391 84.1328 160.514 84.8992 159.441 84.8992C158.369 84.8992 157.491 84.145 157.491 83.1963C157.491 82.2475 158.369 81.4934 159.441 81.4934C160.528 81.5056 161.391 82.2597 161.391 83.1963Z" fill="#614A89"/>
<path opacity="0.7" d="M176.95 84.8992C178.027 84.8992 178.9 84.1367 178.9 83.1963C178.9 82.2558 178.027 81.4934 176.95 81.4934C175.873 81.4934 175 82.2558 175 83.1963C175 84.1367 175.873 84.8992 176.95 84.8992Z" fill="#614A89"/>
</g>
<g opacity="0.7">
<path opacity="0.7" d="M3.90002 96.783C3.90002 97.7195 3.02252 98.4858 1.95001 98.4858C0.877501 98.4858 0 97.7317 0 96.783C0 95.8464 0.863572 95.0801 1.95001 95.0801C3.02252 95.0922 3.90002 95.8464 3.90002 96.783Z" fill="#614A89"/>
<path opacity="0.7" d="M21.3948 96.7822C21.3948 97.7187 20.5312 98.4849 19.4447 98.4849C18.3722 98.4849 17.4948 97.7309 17.4948 96.7822C17.4948 95.8458 18.3722 95.0796 19.4447 95.0796C20.5312 95.0918 21.3948 95.8458 21.3948 96.7822Z" fill="#614A89"/>
<path opacity="0.7" d="M38.8889 96.7822C38.8889 97.7187 38.0114 98.4849 36.9388 98.4849C35.8663 98.4849 34.9888 97.7309 34.9888 96.7822C34.9888 95.8458 35.8524 95.0796 36.9388 95.0796C38.0253 95.0918 38.8889 95.8458 38.8889 96.7822Z" fill="#614A89"/>
<path opacity="0.7" d="M56.3971 96.7822C56.3971 97.7187 55.5336 98.4849 54.4471 98.4849C53.3746 98.4849 52.4971 97.7309 52.4971 96.7822C52.4971 95.8458 53.3746 95.0796 54.4471 95.0796C55.5196 95.0918 56.3971 95.8458 56.3971 96.7822Z" fill="#614A89"/>
<path opacity="0.7" d="M73.8919 96.7822C73.8919 97.7187 73.0144 98.4849 71.9419 98.4849C70.8694 98.4849 69.9919 97.7309 69.9919 96.7822C69.9919 95.8458 70.8554 95.0796 71.9419 95.0796C73.0283 95.0918 73.8919 95.8458 73.8919 96.7822Z" fill="#614A89"/>
<path opacity="0.7" d="M91.4001 96.7822C91.4001 97.7187 90.5226 98.4849 89.4502 98.4849C88.3777 98.4849 87.5002 97.7309 87.5002 96.7822C87.5002 95.8458 88.3777 95.0796 89.4502 95.0796C90.5226 95.0918 91.4001 95.8458 91.4001 96.7822Z" fill="#614A89"/>
<path opacity="0.7" d="M108.894 96.7822C108.894 97.7187 108.017 98.4849 106.944 98.4849C105.872 98.4849 104.994 97.7309 104.994 96.7822C104.994 95.8458 105.858 95.0796 106.944 95.0796C108.017 95.0918 108.894 95.8458 108.894 96.7822Z" fill="#614A89"/>
<path opacity="0.7" d="M126.389 96.7822C126.389 97.7187 125.512 98.4849 124.439 98.4849C123.366 98.4849 122.489 97.7309 122.489 96.7822C122.489 95.8458 123.366 95.0796 124.439 95.0796C125.525 95.0918 126.389 95.8458 126.389 96.7822Z" fill="#614A89"/>
<path opacity="0.7" d="M143.897 96.7822C143.897 97.7187 143.02 98.4849 141.947 98.4849C140.875 98.4849 139.997 97.7309 139.997 96.7822C139.997 95.8458 140.861 95.0796 141.947 95.0796C143.02 95.0918 143.897 95.8458 143.897 96.7822Z" fill="#614A89"/>
<path opacity="0.7" d="M161.391 96.7822C161.391 97.7187 160.514 98.4849 159.441 98.4849C158.369 98.4849 157.491 97.7309 157.491 96.7822C157.491 95.8458 158.369 95.0796 159.441 95.0796C160.528 95.0918 161.391 95.8458 161.391 96.7822Z" fill="#614A89"/>
<path opacity="0.7" d="M178.9 96.7822C178.9 97.7187 178.036 98.4849 176.95 98.4849C175.863 98.4849 175 97.7309 175 96.7822C175 95.8458 175.863 95.0796 176.95 95.0796C178.036 95.0796 178.9 95.8458 178.9 96.7822Z" fill="#614A89"/>
</g>
<g opacity="0.7">
<path opacity="0.7" d="M3.90002 110.369C3.90002 111.306 3.02252 112.072 1.95001 112.072C0.877501 112.072 0 111.318 0 110.369C0 109.433 0.863572 108.666 1.95001 108.666C3.02252 108.666 3.90002 109.433 3.90002 110.369Z" fill="#614A89"/>
<path opacity="0.7" d="M21.3948 110.369C21.3948 111.305 20.5312 112.072 19.4447 112.072C18.3722 112.072 17.4948 111.317 17.4948 110.369C17.4948 109.432 18.3722 108.666 19.4447 108.666C20.5312 108.666 21.3948 109.432 21.3948 110.369Z" fill="#614A89"/>
<path opacity="0.7" d="M38.8889 110.369C38.8889 111.305 38.0114 112.072 36.9388 112.072C35.8663 112.072 34.9888 111.317 34.9888 110.369C34.9888 109.432 35.8524 108.666 36.9388 108.666C38.0253 108.666 38.8889 109.432 38.8889 110.369Z" fill="#614A89"/>
<path opacity="0.7" d="M56.3971 110.369C56.3971 111.305 55.5336 112.072 54.4471 112.072C53.3746 112.072 52.4971 111.317 52.4971 110.369C52.4971 109.432 53.3746 108.666 54.4471 108.666C55.5196 108.666 56.3971 109.432 56.3971 110.369Z" fill="#614A89"/>
<path opacity="0.7" d="M73.8919 110.369C73.8919 111.305 73.0144 112.072 71.9419 112.072C70.8694 112.072 69.9919 111.317 69.9919 110.369C69.9919 109.432 70.8554 108.666 71.9419 108.666C73.0283 108.666 73.8919 109.432 73.8919 110.369Z" fill="#614A89"/>
<path opacity="0.7" d="M91.4001 110.369C91.4001 111.305 90.5226 112.072 89.4502 112.072C88.3777 112.072 87.5002 111.317 87.5002 110.369C87.5002 109.432 88.3777 108.666 89.4502 108.666C90.5226 108.666 91.4001 109.432 91.4001 110.369Z" fill="#614A89"/>
<path opacity="0.7" d="M108.894 110.369C108.894 111.305 108.017 112.072 106.944 112.072C105.872 112.072 104.994 111.317 104.994 110.369C104.994 109.432 105.858 108.666 106.944 108.666C108.017 108.666 108.894 109.432 108.894 110.369Z" fill="#614A89"/>
<path opacity="0.7" d="M126.389 110.369C126.389 111.305 125.512 112.072 124.439 112.072C123.366 112.072 122.489 111.317 122.489 110.369C122.489 109.432 123.366 108.666 124.439 108.666C125.525 108.666 126.389 109.432 126.389 110.369Z" fill="#614A89"/>
<path opacity="0.7" d="M143.897 110.369C143.897 111.305 143.02 112.072 141.947 112.072C140.875 112.072 139.997 111.317 139.997 110.369C139.997 109.432 140.861 108.666 141.947 108.666C143.02 108.666 143.897 109.432 143.897 110.369Z" fill="#614A89"/>
<path opacity="0.7" d="M161.391 110.369C161.391 111.305 160.514 112.072 159.441 112.072C158.369 112.072 157.491 111.317 157.491 110.369C157.491 109.432 158.369 108.666 159.441 108.666C160.528 108.666 161.391 109.432 161.391 110.369Z" fill="#614A89"/>
<path opacity="0.7" d="M178.9 110.369C178.9 111.305 178.036 112.072 176.95 112.072C175.863 112.072 175 111.317 175 110.369C175 109.432 175.863 108.666 176.95 108.666C178.036 108.666 178.9 109.432 178.9 110.369Z" fill="#614A89"/>
</g>
<g opacity="0.7">
<path opacity="0.7" d="M1.95001 125.659C3.02698 125.659 3.90002 124.896 3.90002 123.956C3.90002 123.015 3.02698 122.252 1.95001 122.252C0.873046 122.252 0 123.015 0 123.956C0 124.896 0.873046 125.659 1.95001 125.659Z" fill="#614A89"/>
<path opacity="0.7" d="M19.4447 125.657C20.5217 125.657 21.3948 124.895 21.3948 123.955C21.3948 123.014 20.5217 122.252 19.4447 122.252C18.3678 122.252 17.4948 123.014 17.4948 123.955C17.4948 124.895 18.3678 125.657 19.4447 125.657Z" fill="#614A89"/>
<path opacity="0.7" d="M36.9531 125.657C38.0301 125.657 38.9031 124.895 38.9031 123.955C38.9031 123.014 38.0301 122.252 36.9531 122.252C35.8761 122.252 35.0031 123.014 35.0031 123.955C35.0031 124.895 35.8761 125.657 36.9531 125.657Z" fill="#614A89"/>
<path opacity="0.7" d="M54.4471 125.657C55.5241 125.657 56.3971 124.895 56.3971 123.955C56.3971 123.014 55.5241 122.252 54.4471 122.252C53.3702 122.252 52.4971 123.014 52.4971 123.955C52.4971 124.895 53.3702 125.657 54.4471 125.657Z" fill="#614A89"/>
<path opacity="0.7" d="M71.9554 125.657C73.0323 125.657 73.9054 124.895 73.9054 123.955C73.9054 123.014 73.0323 122.252 71.9554 122.252C70.8785 122.252 70.0055 123.014 70.0055 123.955C70.0055 124.895 70.8785 125.657 71.9554 125.657Z" fill="#614A89"/>
<path opacity="0.7" d="M91.4001 123.955C91.4001 124.891 90.5226 125.657 89.4502 125.657C88.3777 125.657 87.5002 124.903 87.5002 123.955C87.5002 123.006 88.3777 122.252 89.4502 122.252C90.5226 122.252 91.4001 123.018 91.4001 123.955Z" fill="#614A89"/>
<path opacity="0.7" d="M106.944 125.657C108.021 125.657 108.894 124.895 108.894 123.955C108.894 123.014 108.021 122.252 106.944 122.252C105.867 122.252 104.994 123.014 104.994 123.955C104.994 124.895 105.867 125.657 106.944 125.657Z" fill="#614A89"/>
<path opacity="0.7" d="M126.389 123.955C126.389 124.891 125.512 125.657 124.439 125.657C123.366 125.657 122.489 124.903 122.489 123.955C122.489 123.006 123.366 122.252 124.439 122.252C125.525 122.252 126.389 123.018 126.389 123.955Z" fill="#614A89"/>
<path opacity="0.7" d="M141.947 125.657C143.024 125.657 143.897 124.895 143.897 123.955C143.897 123.014 143.024 122.252 141.947 122.252C140.87 122.252 139.997 123.014 139.997 123.955C139.997 124.895 140.87 125.657 141.947 125.657Z" fill="#614A89"/>
<path opacity="0.7" d="M161.391 123.955C161.391 124.891 160.514 125.657 159.441 125.657C158.369 125.657 157.491 124.903 157.491 123.955C157.491 123.006 158.369 122.252 159.441 122.252C160.528 122.252 161.391 123.018 161.391 123.955Z" fill="#614A89"/>
<path opacity="0.7" d="M176.95 125.657C178.027 125.657 178.9 124.895 178.9 123.955C178.9 123.014 178.027 122.252 176.95 122.252C175.873 122.252 175 123.014 175 123.955C175 124.895 175.873 125.657 176.95 125.657Z" fill="#614A89"/>
</g>
<g opacity="0.7">
<path opacity="0.7" d="M3.90002 137.529C3.90002 138.466 3.02252 139.232 1.95001 139.232C0.877501 139.232 0 138.466 0 137.529C0 136.592 0.863572 135.826 1.95001 135.826C3.02252 135.838 3.90002 136.592 3.90002 137.529Z" fill="#614A89"/>
<path opacity="0.7" d="M21.3948 137.529C21.3948 138.465 20.5312 139.232 19.4447 139.232C18.3722 139.232 17.4948 138.465 17.4948 137.529C17.4948 136.592 18.3722 135.826 19.4447 135.826C20.5312 135.838 21.3948 136.592 21.3948 137.529Z" fill="#614A89"/>
<path opacity="0.7" d="M38.8889 137.529C38.8889 138.465 38.0114 139.232 36.9388 139.232C35.8663 139.232 34.9888 138.465 34.9888 137.529C34.9888 136.592 35.8524 135.826 36.9388 135.826C38.0253 135.838 38.8889 136.592 38.8889 137.529Z" fill="#614A89"/>
<path opacity="0.7" d="M56.3971 137.529C56.3971 138.465 55.5336 139.232 54.4471 139.232C53.3746 139.232 52.4971 138.465 52.4971 137.529C52.4971 136.592 53.3746 135.826 54.4471 135.826C55.5196 135.838 56.3971 136.592 56.3971 137.529Z" fill="#614A89"/>
<path opacity="0.7" d="M73.8919 137.529C73.8919 138.465 73.0144 139.232 71.9419 139.232C70.8694 139.232 69.9919 138.465 69.9919 137.529C69.9919 136.592 70.8554 135.826 71.9419 135.826C73.0283 135.838 73.8919 136.592 73.8919 137.529Z" fill="#614A89"/>
<path opacity="0.7" d="M91.4001 137.529C91.4001 138.465 90.5226 139.232 89.4502 139.232C88.3777 139.232 87.5002 138.465 87.5002 137.529C87.5002 136.592 88.3777 135.826 89.4502 135.826C90.5226 135.838 91.4001 136.592 91.4001 137.529Z" fill="#614A89"/>
<path opacity="0.7" d="M108.894 137.529C108.894 138.465 108.017 139.232 106.944 139.232C105.872 139.232 104.994 138.465 104.994 137.529C104.994 136.592 105.858 135.826 106.944 135.826C108.017 135.838 108.894 136.592 108.894 137.529Z" fill="#614A89"/>
<path opacity="0.7" d="M126.389 137.529C126.389 138.465 125.512 139.232 124.439 139.232C123.366 139.232 122.489 138.465 122.489 137.529C122.489 136.592 123.366 135.826 124.439 135.826C125.525 135.838 126.389 136.592 126.389 137.529Z" fill="#614A89"/>
<path opacity="0.7" d="M143.897 137.529C143.897 138.465 143.02 139.232 141.947 139.232C140.875 139.232 139.997 138.465 139.997 137.529C139.997 136.592 140.861 135.826 141.947 135.826C143.02 135.838 143.897 136.592 143.897 137.529Z" fill="#614A89"/>
<path opacity="0.7" d="M161.391 137.529C161.391 138.465 160.514 139.232 159.441 139.232C158.369 139.232 157.491 138.465 157.491 137.529C157.491 136.592 158.369 135.826 159.441 135.826C160.528 135.838 161.391 136.592 161.391 137.529Z" fill="#614A89"/>
<path opacity="0.7" d="M178.9 137.529C178.9 138.465 178.036 139.232 176.95 139.232C175.863 139.232 175 138.465 175 137.529C175 136.592 175.863 135.826 176.95 135.826C178.036 135.826 178.9 136.592 178.9 137.529Z" fill="#614A89"/>
</g>
<g opacity="0.7">
<path opacity="0.7" d="M1.95001 152.818C3.02698 152.818 3.90002 152.056 3.90002 151.115C3.90002 150.175 3.02698 149.413 1.95001 149.413C0.873046 149.413 0 150.175 0 151.115C0 152.056 0.873046 152.818 1.95001 152.818Z" fill="#614A89"/>
<path opacity="0.7" d="M19.4447 152.818C20.5217 152.818 21.3948 152.056 21.3948 151.115C21.3948 150.175 20.5217 149.413 19.4447 149.413C18.3678 149.413 17.4948 150.175 17.4948 151.115C17.4948 152.056 18.3678 152.818 19.4447 152.818Z" fill="#614A89"/>
<path opacity="0.7" d="M36.9531 152.818C38.0301 152.818 38.9031 152.056 38.9031 151.115C38.9031 150.175 38.0301 149.413 36.9531 149.413C35.8761 149.413 35.0031 150.175 35.0031 151.115C35.0031 152.056 35.8761 152.818 36.9531 152.818Z" fill="#614A89"/>
<path opacity="0.7" d="M54.4471 152.818C55.5241 152.818 56.3971 152.056 56.3971 151.115C56.3971 150.175 55.5241 149.413 54.4471 149.413C53.3702 149.413 52.4971 150.175 52.4971 151.115C52.4971 152.056 53.3702 152.818 54.4471 152.818Z" fill="#614A89"/>
<path opacity="0.7" d="M71.9554 152.818C73.0323 152.818 73.9054 152.056 73.9054 151.115C73.9054 150.175 73.0323 149.413 71.9554 149.413C70.8785 149.413 70.0055 150.175 70.0055 151.115C70.0055 152.056 70.8785 152.818 71.9554 152.818Z" fill="#614A89"/>
<path opacity="0.7" d="M91.4001 151.115C91.4001 152.052 90.5226 152.818 89.4502 152.818C88.3777 152.818 87.5002 152.052 87.5002 151.115C87.5002 150.179 88.3777 149.413 89.4502 149.413C90.5226 149.425 91.4001 150.179 91.4001 151.115Z" fill="#614A89"/>
<path opacity="0.7" d="M106.944 152.818C108.021 152.818 108.894 152.056 108.894 151.115C108.894 150.175 108.021 149.413 106.944 149.413C105.867 149.413 104.994 150.175 104.994 151.115C104.994 152.056 105.867 152.818 106.944 152.818Z" fill="#614A89"/>
<path opacity="0.7" d="M126.389 151.115C126.389 152.052 125.512 152.818 124.439 152.818C123.366 152.818 122.489 152.052 122.489 151.115C122.489 150.179 123.366 149.413 124.439 149.413C125.525 149.425 126.389 150.179 126.389 151.115Z" fill="#614A89"/>
<path opacity="0.7" d="M141.947 152.818C143.024 152.818 143.897 152.056 143.897 151.115C143.897 150.175 143.024 149.413 141.947 149.413C140.87 149.413 139.997 150.175 139.997 151.115C139.997 152.056 140.87 152.818 141.947 152.818Z" fill="#614A89"/>
<path opacity="0.7" d="M161.391 151.115C161.391 152.052 160.514 152.818 159.441 152.818C158.369 152.818 157.491 152.052 157.491 151.115C157.491 150.179 158.369 149.413 159.441 149.413C160.528 149.425 161.391 150.179 161.391 151.115Z" fill="#614A89"/>
<path opacity="0.7" d="M176.95 152.818C178.027 152.818 178.9 152.056 178.9 151.115C178.9 150.175 178.027 149.413 176.95 149.413C175.873 149.413 175 150.175 175 151.115C175 152.056 175.873 152.818 176.95 152.818Z" fill="#614A89"/>
</g>
</g>
</svg>
