<svg width="42" height="42" viewBox="0 0 42 42" fill="none" xmlns="http://www.w3.org/2000/svg">
<circle cx="21" cy="21" r="21" fill="white"/>
<path d="M22.6476 33H18.6975C18.0377 33 17.501 32.4778 17.501 31.8358V23.1669H15.1965C14.5367 23.1669 14 22.6445 14 22.0027V18.288C14 17.6461 14.5367 17.1238 15.1965 17.1238H17.501V15.2637C17.501 13.4193 18.0963 11.85 19.2222 10.726C20.3532 9.59674 21.9338 9 23.7931 9L26.8056 9.00476C27.4642 9.00586 28 9.52808 28 10.1689V13.6179C28 14.2599 27.4635 14.7821 26.8039 14.7821L24.7756 14.7828C24.157 14.7828 23.9995 14.9035 23.9658 14.9405C23.9103 15.0018 23.8443 15.1752 23.8443 15.6541V17.1237H26.6515C26.8628 17.1237 27.0675 17.1744 27.2435 17.27C27.6231 17.4763 27.859 17.8665 27.859 18.2882L27.8575 22.0029C27.8575 22.6445 27.3208 23.1667 26.661 23.1667H23.8443V31.8358C23.8443 32.4778 23.3074 33 22.6476 33ZM18.9471 31.593H22.398V22.537C22.398 22.1083 22.7565 21.7597 23.1969 21.7597H26.4115L26.4128 18.5308H23.1967C22.7564 18.5308 22.398 18.1822 22.398 17.7535V15.6541C22.398 15.1044 22.4554 14.4792 22.8819 14.0094C23.3971 13.4414 24.2092 13.3759 24.7752 13.3759L26.554 13.3751V10.4114L23.7919 10.407C20.8039 10.407 18.9471 12.2681 18.9471 15.2637V17.7535C18.9471 18.182 18.5888 18.5308 18.1484 18.5308H15.446V21.7597H18.1484C18.5888 21.7597 18.9471 22.1083 18.9471 22.537V31.593ZM26.8028 10.4117H26.8029H26.8028Z" fill="black"/>
</svg>
