<svg width="65" height="78" viewBox="0 0 65 78" fill="none" xmlns="http://www.w3.org/2000/svg">
<path d="M3.8056 55.0028L2.88393 57.4705L2.61635 52.7135L0 3.68672L11.506 3.06236L23.8445 2.37854L23.012 4.66785L3.8056 55.0028ZM43.1995 54.6461L17.3036 54.7947L11.1195 71.4739L10.1681 74.0903L23.785 73.347L50.1566 71.9199L43.1995 54.6461ZM53.1892 6.06522L52.8919 0.83252L35.7072 1.75419L36.4802 3.59752L55.5677 50.5134L53.1892 6.06522Z" fill="url(#paint0_linear_1063_2099)"/>
<path d="M24.0824 1.75414L23.8445 2.3785L23.012 4.6678L3.80566 55.0028L11.5061 3.06232L11.952 0L24.0824 1.75414ZM38.9183 43.7346L29.88 19.7415L21.2579 43.8536L38.9183 43.7346ZM50.1269 71.9496L43.1996 54.646L17.3036 54.7947L11.1195 71.4739L23.7851 73.347L52.446 77.5985L50.1269 71.9496ZM53.1893 6.06517L36.4803 3.59748L55.5678 50.5134L57.3814 54.9136L64.3682 7.73012L53.1893 6.06517Z" fill="url(#paint1_linear_1063_2099)"/>
<defs>
<linearGradient id="paint0_linear_1063_2099" x1="27.7764" y1="0.820122" x2="27.7764" y2="74.0959" gradientUnits="userSpaceOnUse">
<stop stop-color="#606161"/>
<stop offset="1"/>
</linearGradient>
<linearGradient id="paint1_linear_1063_2099" x1="34.0846" y1="-0.0177198" x2="34.0846" y2="77.6093" gradientUnits="userSpaceOnUse">
<stop offset="0.2626" stop-color="#E7C96A"/>
<stop offset="0.9944" stop-color="#BD802B"/>
</linearGradient>
</defs>
</svg>
