<svg width="56" height="56" viewBox="0 0 56 56" fill="none" xmlns="http://www.w3.org/2000/svg">
<rect width="56" height="56" rx="4" fill="#F6F4FF"/>
<path d="M23.871 32.6919H14.0645C12.9239 32.6919 12 31.7659 12 30.6227V14.0692C12 12.926 12.9239 12 14.0645 12H41.9355C43.0761 12 44 12.926 44 14.0692V30.6227C44 31.7659 43.0761 32.6919 41.9355 32.6919H40.9032" stroke="#DB3539" stroke-width="1.44" stroke-miterlimit="10" stroke-linejoin="round"/>
<path d="M15.0968 26.4844H18.1935" stroke="#DB3539" stroke-width="1.44" stroke-miterlimit="10" stroke-linecap="round" stroke-linejoin="round"/>
<path d="M20.2581 26.4844H23.3548" stroke="#DB3539" stroke-width="1.44" stroke-miterlimit="10" stroke-linecap="round" stroke-linejoin="round"/>
<path d="M12.5161 16.1387H43.4839" stroke="#DB3539" stroke-width="1.44" stroke-miterlimit="10" stroke-linecap="square" stroke-linejoin="round"/>
<path d="M12.5161 20.2769H43.4839" stroke="#DB3539" stroke-width="1.44" stroke-miterlimit="10" stroke-linecap="square" stroke-linejoin="round"/>
<path d="M32.3867 26.6807C32.3867 26.6807 29.3209 28.0774 25.4189 28.636V34.4712C25.4189 36.7938 26.4409 38.9923 28.2164 40.4873L32.3867 43.9998L36.557 40.4873C38.3325 38.9923 39.3544 36.7938 39.3544 34.4712V28.636C35.4525 28.0774 32.3867 26.6807 32.3867 26.6807Z" stroke="#DB3539" stroke-width="1.44" stroke-miterlimit="10" stroke-linecap="round" stroke-linejoin="round"/>
</svg>
