<svg width="4017" height="1538" viewBox="0 0 4017 1538" fill="none" xmlns="http://www.w3.org/2000/svg">
<path fill-rule="evenodd" clip-rule="evenodd" d="M3830.8 912.528H3575.69V1086.62L3909.94 1086.36C3912.73 1086.62 3915.51 1086.8 3918.37 1086.8C3966.54 1086.8 4005.94 1047.63 4005.94 999.748V707.713C4005.94 659.741 3966.54 620.662 3918.37 620.662C3913.46 620.662 3908.72 621.012 3904.07 621.796H3751.97V537.797H4016.49V363.777H3670.3C3668.34 363.614 3666.37 363.52 3664.41 363.52C3616.25 363.52 3576.91 402.693 3576.91 450.577V694.139C3576.35 697.88 3576.02 701.784 3576.02 705.789C3576.02 751.93 3614.04 789.712 3660.49 789.712H3830.8V912.528ZM3331.79 363.52H3522.79V1082.1H3331.79V363.52ZM3105.22 912.528H2858.44V1086.62L3181.83 1086.36C3184.45 1086.62 3187.14 1086.8 3189.92 1086.8C3236.54 1086.8 3274.64 1047.63 3274.64 999.748V707.713C3274.64 659.741 3236.54 620.662 3189.92 620.662C3185.26 620.662 3180.6 621.012 3176.11 621.796H3029.01V537.797H3284.85V363.777H2949.93C2948.06 363.614 2946.18 363.52 2944.3 363.52C2897.69 363.52 2859.59 402.693 2859.59 450.577V694.139C2859.1 697.88 2858.77 701.784 2858.77 705.789C2858.77 751.93 2895.57 789.712 2940.45 789.712H3105.22V912.528ZM2490.18 363.52H2798.35V530.22H2574.89V641.298H2798.35V807.992H2574.89V919.139H2798.35V1085.75H2490.35H2490.18H2490.02H2466.79V1082.97C2421.49 1072 2387.48 1030.05 2387.48 980.246V469.114C2387.48 419.325 2421.49 377.281 2466.79 366.314V363.52H2490.18ZM1970.23 363.52H2250.2C2295.09 363.52 2329.84 400.255 2329.84 446.391V458.485C2329.84 464.852 2331.14 472.153 2329.84 478.169V1079.75H2149.62V523.866H2062.3L2063.12 1081.66H1890.1L1889.13 469.54C1888.79 466.243 1888.55 462.929 1888.55 459.444V447.519C1888.55 401.302 1925.34 363.52 1970.23 363.52ZM1527.89 363.52H1836.06V530.22H1612.6V641.298H1836.06V807.992H1612.6V919.139H1836.06V1085.75H1528.05H1527.89H1527.71H1504.42V1082.97C1459.2 1072 1425.19 1030.05 1425.19 980.246V469.114C1425.19 419.325 1459.2 377.281 1504.42 366.314V363.52H1527.89Z" fill="#FF0000"/>
<path fill-rule="evenodd" clip-rule="evenodd" d="M659.833 0.822992C1129.74 -22.1571 1255.66 445.115 1148.06 276.415C1035.3 144.018 909.373 37.2954 667.591 37.2954C425.827 37.2954 138.254 265.36 137.922 598.141C137.195 1331.77 1264.08 1386.79 1222.3 598.141C1202.67 226.976 910.282 1155.41 453.301 773.114C422.8 748.035 511.838 776.674 518.211 777.545C921.324 788.863 831.296 552.263 1025.08 444.425C1087.71 403.416 1162.53 412.904 1205.04 436.924C1291.96 487.597 1344.78 606.232 1344.78 717.046C1344.78 1105.54 1052.39 1390.45 675.769 1390.45C-135.019 1390.45 -305.323 48.0928 659.833 0.822992Z" fill="#FF0000"/>
<path d="M1982.45 1242.76C1982.45 1238.33 1979.08 1234.74 1974.92 1234.74H1638.96C1634.8 1234.74 1631.43 1238.33 1631.43 1242.76C1631.43 1247.19 1634.8 1250.78 1638.96 1250.78H1974.92C1979.08 1250.78 1982.45 1247.19 1982.45 1242.76Z" fill="#4B4B4D"/>
<path d="M1982.45 1529.78C1982.45 1525.35 1979.08 1521.76 1974.92 1521.76H1638.96C1634.8 1521.76 1631.43 1525.35 1631.43 1529.78C1631.43 1534.21 1634.8 1537.79 1638.96 1537.79H1974.92C1979.08 1537.79 1982.45 1534.21 1982.45 1529.78Z" fill="#4B4B4D"/>
<path d="M1742 1469.46C1736.5 1469.46 1732.04 1464.71 1732.04 1458.86V1313.64C1732.04 1307.8 1736.5 1303.04 1742 1303.04H1871.94C1877.41 1303.04 1881.88 1307.8 1881.88 1313.64V1458.86C1881.88 1464.71 1877.41 1469.46 1871.94 1469.46H1742ZM1896.95 1458.86V1313.64C1896.95 1298.95 1885.72 1287 1871.94 1287H1742C1728.19 1287 1716.98 1298.95 1716.98 1313.64V1458.86C1716.98 1473.55 1728.19 1485.49 1742 1485.49H1871.94C1885.72 1485.51 1896.95 1473.55 1896.95 1458.86Z" fill="#4B4B4D"/>
<path d="M1711.19 1459.59V1312.92C1711.19 1298.63 1700.27 1287 1686.84 1287H1638.98C1634.8 1287 1631.43 1290.61 1631.43 1295.04C1631.43 1299.47 1634.8 1303.05 1638.98 1303.05H1686.84C1691.95 1303.05 1696.11 1307.48 1696.11 1312.92V1459.59C1696.11 1465.03 1691.95 1469.46 1686.84 1469.46H1638.98C1634.8 1469.46 1631.43 1473.07 1631.43 1477.49C1631.43 1481.92 1634.8 1485.51 1638.98 1485.51H1686.84C1700.27 1485.51 1711.19 1473.89 1711.19 1459.59Z" fill="#4B4B4D"/>
<path d="M1982.42 1477.48C1982.42 1473.05 1979.05 1469.46 1974.89 1469.46H1927C1921.9 1469.46 1917.74 1465.03 1917.74 1459.58V1312.9C1917.74 1307.47 1921.9 1303.04 1927 1303.04H1974.89C1979.05 1303.04 1982.42 1299.45 1982.42 1295.02C1982.42 1290.59 1979.05 1287 1974.89 1287H1927C1913.59 1287 1902.66 1298.62 1902.66 1312.9V1459.58C1902.66 1473.88 1913.59 1485.49 1927 1485.49H1974.89C1979.05 1485.49 1982.42 1481.9 1982.42 1477.48Z" fill="#4B4B4D"/>
<path d="M1970.36 1506.04V1501.27C1970.36 1496.84 1966.99 1493.24 1962.83 1493.24C1958.67 1493.24 1955.29 1496.84 1955.29 1501.27V1506.04C1955.29 1510.46 1958.67 1514.05 1962.83 1514.05C1966.99 1514.05 1970.36 1510.46 1970.36 1506.04Z" fill="#4B4B4D"/>
<path d="M1941.97 1506.04V1501.27C1941.97 1496.84 1938.6 1493.24 1934.43 1493.24C1930.27 1493.24 1926.89 1496.84 1926.89 1501.27V1506.04C1926.89 1510.46 1930.27 1514.05 1934.43 1514.05C1938.6 1514.05 1941.97 1510.46 1941.97 1506.04Z" fill="#4B4B4D"/>
<path d="M1913.69 1506.04V1501.27C1913.69 1496.84 1910.32 1493.24 1906.16 1493.24C1902 1493.24 1898.62 1496.84 1898.62 1501.27V1506.04C1898.62 1510.46 1902 1514.05 1906.16 1514.05C1910.32 1514.05 1913.69 1510.46 1913.69 1506.04Z" fill="#4B4B4D"/>
<path d="M1885.3 1506.04V1501.27C1885.3 1496.84 1881.93 1493.24 1877.77 1493.24C1873.61 1493.24 1870.22 1496.84 1870.22 1501.27V1506.04C1870.22 1510.46 1873.61 1514.05 1877.77 1514.05C1881.93 1514.05 1885.3 1510.46 1885.3 1506.04Z" fill="#4B4B4D"/>
<path d="M1857.03 1506.04V1501.27C1857.03 1496.84 1853.66 1493.24 1849.5 1493.24C1845.34 1493.24 1841.95 1496.84 1841.95 1501.27V1506.04C1841.95 1510.46 1845.34 1514.05 1849.5 1514.05C1853.66 1514.05 1857.03 1510.46 1857.03 1506.04Z" fill="#4B4B4D"/>
<path d="M1828.63 1506.04V1501.27C1828.63 1496.84 1825.26 1493.24 1821.1 1493.24C1816.94 1493.24 1813.55 1496.84 1813.55 1501.27V1506.04C1813.55 1510.46 1816.94 1514.05 1821.1 1514.05C1825.26 1514.05 1828.63 1510.46 1828.63 1506.04Z" fill="#4B4B4D"/>
<path d="M1800.36 1506.04V1501.27C1800.36 1496.84 1796.99 1493.24 1792.83 1493.24C1788.67 1493.24 1785.28 1496.84 1785.28 1501.27V1506.04C1785.28 1510.46 1788.67 1514.05 1792.83 1514.05C1796.99 1514.05 1800.36 1510.46 1800.36 1506.04Z" fill="#4B4B4D"/>
<path d="M1771.96 1506.04V1501.27C1771.96 1496.84 1768.59 1493.24 1764.43 1493.24C1760.27 1493.24 1756.88 1496.84 1756.88 1501.27V1506.04C1756.88 1510.46 1760.27 1514.05 1764.43 1514.05C1768.59 1514.05 1771.96 1510.46 1771.96 1506.04Z" fill="#4B4B4D"/>
<path d="M1743.69 1506.04V1501.27C1743.69 1496.84 1740.32 1493.24 1736.15 1493.24C1731.99 1493.24 1728.61 1496.84 1728.61 1501.27V1506.04C1728.61 1510.46 1731.99 1514.05 1736.15 1514.05C1740.32 1514.05 1743.69 1510.46 1743.69 1506.04Z" fill="#4B4B4D"/>
<path d="M1715.28 1506.04V1501.27C1715.28 1496.84 1711.92 1493.24 1707.76 1493.24C1703.59 1493.24 1700.21 1496.84 1700.21 1501.27V1506.04C1700.21 1510.46 1703.59 1514.05 1707.76 1514.05C1711.92 1514.05 1715.28 1510.46 1715.28 1506.04Z" fill="#4B4B4D"/>
<path d="M1687.01 1506.04V1501.27C1687.01 1496.84 1683.64 1493.24 1679.47 1493.24C1675.31 1493.24 1671.94 1496.84 1671.94 1501.27V1506.04C1671.94 1510.46 1675.31 1514.05 1679.47 1514.05C1683.64 1514.05 1687.01 1510.46 1687.01 1506.04Z" fill="#4B4B4D"/>
<path d="M1658.61 1506.04V1501.27C1658.61 1496.84 1655.25 1493.24 1651.08 1493.24C1646.92 1493.24 1643.55 1496.84 1643.55 1501.27V1506.04C1643.55 1510.46 1646.92 1514.05 1651.08 1514.05C1655.25 1514.05 1658.61 1510.46 1658.61 1506.04Z" fill="#4B4B4D"/>
<path d="M1970.36 1271.28V1266.52C1970.36 1262.09 1966.99 1258.48 1962.83 1258.48C1958.67 1258.48 1955.29 1262.09 1955.29 1266.52V1271.28C1955.29 1275.71 1958.67 1279.3 1962.83 1279.3C1966.99 1279.3 1970.36 1275.71 1970.36 1271.28Z" fill="#4B4B4D"/>
<path d="M1941.97 1271.28V1266.52C1941.97 1262.09 1938.6 1258.48 1934.43 1258.48C1930.27 1258.48 1926.89 1262.09 1926.89 1266.52V1271.28C1926.89 1275.71 1930.27 1279.3 1934.43 1279.3C1938.6 1279.3 1941.97 1275.71 1941.97 1271.28Z" fill="#4B4B4D"/>
<path d="M1913.69 1271.28V1266.52C1913.69 1262.09 1910.32 1258.48 1906.16 1258.48C1902 1258.48 1898.62 1262.09 1898.62 1266.52V1271.28C1898.62 1275.71 1902 1279.3 1906.16 1279.3C1910.32 1279.3 1913.69 1275.71 1913.69 1271.28Z" fill="#4B4B4D"/>
<path d="M1885.3 1271.28V1266.52C1885.3 1262.09 1881.93 1258.48 1877.77 1258.48C1873.61 1258.48 1870.22 1262.09 1870.22 1266.52V1271.28C1870.22 1275.71 1873.61 1279.3 1877.77 1279.3C1881.93 1279.3 1885.3 1275.71 1885.3 1271.28Z" fill="#4B4B4D"/>
<path d="M1857.03 1271.28V1266.52C1857.03 1262.09 1853.66 1258.48 1849.5 1258.48C1845.34 1258.48 1841.95 1262.09 1841.95 1266.52V1271.28C1841.95 1275.71 1845.34 1279.3 1849.5 1279.3C1853.66 1279.3 1857.03 1275.71 1857.03 1271.28Z" fill="#4B4B4D"/>
<path d="M1828.63 1271.28V1266.52C1828.63 1262.09 1825.26 1258.48 1821.1 1258.48C1816.94 1258.48 1813.55 1262.09 1813.55 1266.52V1271.28C1813.55 1275.71 1816.94 1279.3 1821.1 1279.3C1825.26 1279.3 1828.63 1275.71 1828.63 1271.28Z" fill="#4B4B4D"/>
<path d="M1800.36 1271.28V1266.52C1800.36 1262.09 1796.99 1258.48 1792.83 1258.48C1788.67 1258.48 1785.28 1262.09 1785.28 1266.52V1271.28C1785.28 1275.71 1788.67 1279.3 1792.83 1279.3C1796.99 1279.3 1800.36 1275.71 1800.36 1271.28Z" fill="#4B4B4D"/>
<path d="M1771.96 1271.28V1266.52C1771.96 1262.09 1768.59 1258.48 1764.43 1258.48C1760.27 1258.48 1756.88 1262.09 1756.88 1266.52V1271.28C1756.88 1275.71 1760.27 1279.3 1764.43 1279.3C1768.59 1279.3 1771.96 1275.71 1771.96 1271.28Z" fill="#4B4B4D"/>
<path d="M1743.69 1271.28V1266.52C1743.69 1262.09 1740.32 1258.48 1736.15 1258.48C1731.99 1258.48 1728.61 1262.09 1728.61 1266.52V1271.28C1728.61 1275.71 1731.99 1279.3 1736.15 1279.3C1740.32 1279.3 1743.69 1275.71 1743.69 1271.28Z" fill="#4B4B4D"/>
<path d="M1715.28 1271.28V1266.52C1715.28 1262.09 1711.92 1258.48 1707.76 1258.48C1703.59 1258.48 1700.21 1262.09 1700.21 1266.52V1271.28C1700.21 1275.71 1703.59 1279.3 1707.76 1279.3C1711.92 1279.3 1715.28 1275.71 1715.28 1271.28Z" fill="#4B4B4D"/>
<path d="M1687.01 1271.28V1266.52C1687.01 1262.09 1683.64 1258.48 1679.47 1258.48C1675.31 1258.48 1671.94 1262.09 1671.94 1266.52V1271.28C1671.94 1275.71 1675.31 1279.3 1679.47 1279.3C1683.64 1279.3 1687.01 1275.71 1687.01 1271.28Z" fill="#4B4B4D"/>
<path d="M1658.61 1271.28V1266.52C1658.61 1262.09 1655.25 1258.48 1651.08 1258.48C1646.92 1258.48 1643.55 1262.09 1643.55 1266.52V1271.28C1643.55 1275.71 1646.92 1279.3 1651.08 1279.3C1655.25 1279.3 1658.61 1275.71 1658.61 1271.28Z" fill="#4B4B4D"/>
<path d="M1637.05 1242.76C1637.05 1238.33 1633.68 1234.74 1629.51 1234.74H1293.56C1289.39 1234.74 1286.02 1238.33 1286.02 1242.76C1286.02 1247.19 1289.39 1250.78 1293.56 1250.78H1629.51C1633.68 1250.78 1637.05 1247.19 1637.05 1242.76Z" fill="#4B4B4D"/>
<path d="M1637.05 1529.78C1637.05 1525.35 1633.68 1521.76 1629.51 1521.76H1293.56C1289.39 1521.76 1286.02 1525.35 1286.02 1529.78C1286.02 1534.21 1289.39 1537.79 1293.56 1537.79H1629.51C1633.68 1537.79 1637.05 1534.21 1637.05 1529.78Z" fill="#4B4B4D"/>
<path d="M1396.59 1469.46C1391.1 1469.46 1386.64 1464.71 1386.64 1458.86V1313.64C1386.64 1307.8 1391.1 1303.04 1396.59 1303.04H1526.53C1532.02 1303.04 1536.48 1307.8 1536.48 1313.64V1458.86C1536.48 1464.71 1532.02 1469.46 1526.53 1469.46H1396.59ZM1551.56 1458.86V1313.64C1551.56 1298.95 1540.33 1287 1526.53 1287H1396.59C1382.79 1287 1371.58 1298.95 1371.58 1313.64V1458.86C1371.58 1473.55 1382.79 1485.49 1396.59 1485.49H1526.53C1540.33 1485.51 1551.56 1473.55 1551.56 1458.86Z" fill="#4B4B4D"/>
<path d="M1365.79 1459.59V1312.92C1365.79 1298.63 1354.87 1287 1341.45 1287H1293.57C1289.41 1287 1286.02 1290.61 1286.02 1295.04C1286.02 1299.47 1289.41 1303.05 1293.57 1303.05H1341.45C1346.57 1303.05 1350.72 1307.48 1350.72 1312.92V1459.59C1350.72 1465.03 1346.57 1469.46 1341.45 1469.46H1293.57C1289.41 1469.46 1286.02 1473.07 1286.02 1477.49C1286.02 1481.92 1289.41 1485.51 1293.57 1485.51H1341.45C1354.87 1485.51 1365.79 1473.89 1365.79 1459.59Z" fill="#4B4B4D"/>
<path d="M1637.02 1477.48C1637.02 1473.05 1633.65 1469.46 1629.49 1469.46H1581.61C1576.49 1469.46 1572.34 1465.03 1572.34 1459.58V1312.9C1572.34 1307.47 1576.49 1303.04 1581.61 1303.04H1629.49C1633.65 1303.04 1637.02 1299.45 1637.02 1295.02C1637.02 1290.59 1633.65 1287 1629.49 1287H1581.61C1568.19 1287 1557.25 1298.62 1557.25 1312.9V1459.58C1557.25 1473.88 1568.19 1485.49 1581.61 1485.49H1629.49C1633.65 1485.49 1637.02 1481.9 1637.02 1477.48Z" fill="#4B4B4D"/>
<path d="M1624.96 1506.04V1501.27C1624.96 1496.84 1621.58 1493.24 1617.42 1493.24C1613.27 1493.24 1609.88 1496.84 1609.88 1501.27V1506.04C1609.88 1510.46 1613.27 1514.05 1617.42 1514.05C1621.58 1514.05 1624.96 1510.46 1624.96 1506.04Z" fill="#4B4B4D"/>
<path d="M1596.56 1506.04V1501.27C1596.56 1496.84 1593.19 1493.24 1589.04 1493.24C1584.88 1493.24 1581.49 1496.84 1581.49 1501.27V1506.04C1581.49 1510.46 1584.88 1514.05 1589.04 1514.05C1593.19 1514.05 1596.56 1510.46 1596.56 1506.04Z" fill="#4B4B4D"/>
<path d="M1568.29 1506.04V1501.27C1568.29 1496.84 1564.92 1493.24 1560.76 1493.24C1556.6 1493.24 1553.21 1496.84 1553.21 1501.27V1506.04C1553.21 1510.46 1556.6 1514.05 1560.76 1514.05C1564.92 1514.05 1568.29 1510.46 1568.29 1506.04Z" fill="#4B4B4D"/>
<path d="M1539.9 1506.04V1501.27C1539.9 1496.84 1536.53 1493.24 1532.35 1493.24C1528.21 1493.24 1524.82 1496.84 1524.82 1501.27V1506.04C1524.82 1510.46 1528.21 1514.05 1532.35 1514.05C1536.53 1514.05 1539.9 1510.46 1539.9 1506.04Z" fill="#4B4B4D"/>
<path d="M1511.62 1506.04V1501.27C1511.62 1496.84 1508.26 1493.24 1504.09 1493.24C1499.93 1493.24 1496.54 1496.84 1496.54 1501.27V1506.04C1496.54 1510.46 1499.93 1514.05 1504.09 1514.05C1508.26 1514.05 1511.62 1510.46 1511.62 1506.04Z" fill="#4B4B4D"/>
<path d="M1483.23 1506.04V1501.27C1483.23 1496.84 1479.86 1493.24 1475.7 1493.24C1471.54 1493.24 1468.15 1496.84 1468.15 1501.27V1506.04C1468.15 1510.46 1471.54 1514.05 1475.7 1514.05C1479.86 1514.05 1483.23 1510.46 1483.23 1506.04Z" fill="#4B4B4D"/>
<path d="M1454.96 1506.04V1501.27C1454.96 1496.84 1451.58 1493.24 1447.42 1493.24C1443.27 1493.24 1439.88 1496.84 1439.88 1501.27V1506.04C1439.88 1510.46 1443.27 1514.05 1447.42 1514.05C1451.58 1514.05 1454.96 1510.46 1454.96 1506.04Z" fill="#4B4B4D"/>
<path d="M1426.56 1506.04V1501.27C1426.56 1496.84 1423.19 1493.24 1419.02 1493.24C1414.86 1493.24 1411.48 1496.84 1411.48 1501.27V1506.04C1411.48 1510.46 1414.86 1514.05 1419.02 1514.05C1423.19 1514.05 1426.56 1510.46 1426.56 1506.04Z" fill="#4B4B4D"/>
<path d="M1398.28 1506.04V1501.27C1398.28 1496.84 1394.91 1493.24 1390.75 1493.24C1386.59 1493.24 1383.21 1496.84 1383.21 1501.27V1506.04C1383.21 1510.46 1386.59 1514.05 1390.75 1514.05C1394.91 1514.05 1398.28 1510.46 1398.28 1506.04Z" fill="#4B4B4D"/>
<path d="M1369.89 1506.04V1501.27C1369.89 1496.84 1366.52 1493.24 1362.36 1493.24C1358.19 1493.24 1354.81 1496.84 1354.81 1501.27V1506.04C1354.81 1510.46 1358.19 1514.05 1362.36 1514.05C1366.52 1514.05 1369.89 1510.46 1369.89 1506.04Z" fill="#4B4B4D"/>
<path d="M1341.49 1506.04V1501.27C1341.49 1496.84 1338.12 1493.24 1333.96 1493.24C1329.8 1493.24 1326.42 1496.84 1326.42 1501.27V1506.04C1326.42 1510.46 1329.8 1514.05 1333.96 1514.05C1338.12 1514.05 1341.49 1510.46 1341.49 1506.04Z" fill="#4B4B4D"/>
<path d="M1313.21 1506.04V1501.27C1313.21 1496.84 1309.84 1493.24 1305.69 1493.24C1301.53 1493.24 1298.14 1496.84 1298.14 1501.27V1506.04C1298.14 1510.46 1301.53 1514.05 1305.69 1514.05C1309.84 1514.05 1313.21 1510.46 1313.21 1506.04Z" fill="#4B4B4D"/>
<path d="M1624.96 1271.28V1266.52C1624.96 1262.09 1621.58 1258.48 1617.42 1258.48C1613.27 1258.48 1609.88 1262.09 1609.88 1266.52V1271.28C1609.88 1275.71 1613.27 1279.3 1617.42 1279.3C1621.58 1279.3 1624.96 1275.71 1624.96 1271.28Z" fill="#4B4B4D"/>
<path d="M1596.56 1271.28V1266.52C1596.56 1262.09 1593.19 1258.48 1589.04 1258.48C1584.88 1258.48 1581.49 1262.09 1581.49 1266.52V1271.28C1581.49 1275.71 1584.88 1279.3 1589.04 1279.3C1593.19 1279.3 1596.56 1275.71 1596.56 1271.28Z" fill="#4B4B4D"/>
<path d="M1568.29 1271.28V1266.52C1568.29 1262.09 1564.92 1258.48 1560.76 1258.48C1556.6 1258.48 1553.21 1262.09 1553.21 1266.52V1271.28C1553.21 1275.71 1556.6 1279.3 1560.76 1279.3C1564.92 1279.3 1568.29 1275.71 1568.29 1271.28Z" fill="#4B4B4D"/>
<path d="M1539.9 1271.28V1266.52C1539.9 1262.09 1536.53 1258.48 1532.35 1258.48C1528.21 1258.48 1524.82 1262.09 1524.82 1266.52V1271.28C1524.82 1275.71 1528.21 1279.3 1532.35 1279.3C1536.53 1279.3 1539.9 1275.71 1539.9 1271.28Z" fill="#4B4B4D"/>
<path d="M1511.62 1271.28V1266.52C1511.62 1262.09 1508.26 1258.48 1504.09 1258.48C1499.93 1258.48 1496.54 1262.09 1496.54 1266.52V1271.28C1496.54 1275.71 1499.93 1279.3 1504.09 1279.3C1508.26 1279.3 1511.62 1275.71 1511.62 1271.28Z" fill="#4B4B4D"/>
<path d="M1483.23 1271.28V1266.52C1483.23 1262.09 1479.86 1258.48 1475.7 1258.48C1471.54 1258.48 1468.15 1262.09 1468.15 1266.52V1271.28C1468.15 1275.71 1471.54 1279.3 1475.7 1279.3C1479.86 1279.3 1483.23 1275.71 1483.23 1271.28Z" fill="#4B4B4D"/>
<path d="M1454.96 1271.28V1266.52C1454.96 1262.09 1451.58 1258.48 1447.42 1258.48C1443.27 1258.48 1439.88 1262.09 1439.88 1266.52V1271.28C1439.88 1275.71 1443.27 1279.3 1447.42 1279.3C1451.58 1279.3 1454.96 1275.71 1454.96 1271.28Z" fill="#4B4B4D"/>
<path d="M1426.56 1271.28V1266.52C1426.56 1262.09 1423.19 1258.48 1419.02 1258.48C1414.86 1258.48 1411.48 1262.09 1411.48 1266.52V1271.28C1411.48 1275.71 1414.86 1279.3 1419.02 1279.3C1423.19 1279.3 1426.56 1275.71 1426.56 1271.28Z" fill="#4B4B4D"/>
<path d="M1398.28 1271.28V1266.52C1398.28 1262.09 1394.91 1258.48 1390.75 1258.48C1386.59 1258.48 1383.21 1262.09 1383.21 1266.52V1271.28C1383.21 1275.71 1386.59 1279.3 1390.75 1279.3C1394.91 1279.3 1398.28 1275.71 1398.28 1271.28Z" fill="#4B4B4D"/>
<path d="M1369.89 1271.28V1266.52C1369.89 1262.09 1366.52 1258.48 1362.36 1258.48C1358.19 1258.48 1354.81 1262.09 1354.81 1266.52V1271.28C1354.81 1275.71 1358.19 1279.3 1362.36 1279.3C1366.52 1279.3 1369.89 1275.71 1369.89 1271.28Z" fill="#4B4B4D"/>
<path d="M1341.49 1271.28V1266.52C1341.49 1262.09 1338.12 1258.48 1333.96 1258.48C1329.8 1258.48 1326.42 1262.09 1326.42 1266.52V1271.28C1326.42 1275.71 1329.8 1279.3 1333.96 1279.3C1338.12 1279.3 1341.49 1275.71 1341.49 1271.28Z" fill="#4B4B4D"/>
<path d="M1313.21 1271.28V1266.52C1313.21 1262.09 1309.84 1258.48 1305.69 1258.48C1301.53 1258.48 1298.14 1262.09 1298.14 1266.52V1271.28C1298.14 1275.71 1301.53 1279.3 1305.69 1279.3C1309.84 1279.3 1313.21 1275.71 1313.21 1271.28Z" fill="#4B4B4D"/>
<path d="M2310.24 1438.25C2291.26 1456.77 2263.59 1471.91 2232.37 1471.91C2188.88 1471.91 2160.42 1442.04 2160.42 1390.28C2160.42 1337.67 2188.88 1307.79 2229.99 1307.79C2264.38 1307.79 2279.4 1329.68 2279.8 1364.18L2340.67 1350.72C2339.09 1283.8 2300.35 1242.57 2230.78 1242.57C2151.33 1242.57 2091.64 1297.27 2091.64 1390.28C2091.64 1482.43 2151.33 1537.14 2230.78 1537.14C2275.45 1537.14 2316.95 1515.26 2341.07 1490.85L2310.24 1438.25ZM2397.59 1532.93H2464V1246.77H2397.59V1532.93ZM2739.91 1532.93H2797.22V1246.77H2730.81V1420.58L2595.63 1246.77H2537.91V1532.93H2604.33V1359.14L2739.91 1532.93ZM3087.37 1532.93V1471.49H2934.78V1416.78H3058.51V1357.45H2934.78V1308.21H3087.37V1246.77H2871.53V1532.93H3087.37ZM3387.38 1532.93H3453.79V1246.77H3396.48L3300.82 1366.29L3205.15 1246.77H3147.84V1532.93H3214.25V1357.87L3294.89 1461.39H3306.35L3387.38 1357.87V1532.93ZM3494.11 1532.93H3561.31L3579.89 1480.33H3692.54L3710.73 1532.93H3777.93L3675.94 1246.77H3598.07L3494.11 1532.93ZM3637.2 1316.63L3675.94 1428.57H3596.49L3637.2 1316.63ZM3917.07 1423.94C3936.44 1429.83 3948.29 1436.57 3948.29 1449.19C3948.29 1464.76 3933.67 1476.54 3906.79 1476.54C3876.75 1476.54 3844.73 1463.08 3824.57 1448.35L3809.15 1512.31C3826.54 1522.83 3865.68 1537.14 3905.6 1537.14C3972.8 1537.14 4016.28 1499.27 4016.28 1444.14C4016.28 1404.58 3993.75 1380.59 3944.34 1365.03L3896.91 1349.87C3880.31 1344.82 3872.4 1339.77 3872.4 1327.15C3872.4 1313.26 3884.65 1303.59 3911.93 1303.59C3939.99 1303.59 3972.41 1314.52 3992.96 1328.42L4011.93 1265.71C3990.99 1253.92 3953.04 1242.99 3914.7 1242.99C3841.56 1242.99 3804.8 1282.54 3804.8 1332.2C3804.8 1371.76 3824.96 1397.43 3866.86 1409.63L3917.07 1423.94Z" fill="#4B4B4D"/>
</svg>
