<svg width="14" height="14" viewBox="0 0 14 14" fill="none" xmlns="http://www.w3.org/2000/svg">
<path d="M14 7.00008C14 3.13376 10.866 0 7.00011 0C3.13404 0 0 3.13376 0 7.00008C0 10.8658 3.13404 13.9998 7.00011 13.9998C10.866 13.9998 14 10.8658 14 7.00008Z" fill="#D92028"/>
<path d="M8.89499 10.1456C8.85585 10.0882 8.78077 10.0678 8.71807 10.0975C8.02445 10.4259 7.2372 10.7731 7.08268 10.8034C7.07879 10.7999 7.07261 10.7936 7.06451 10.7826C7.04358 10.7542 7.03339 10.7172 7.03339 10.6693C7.03339 10.2769 7.32952 9.08337 7.91353 7.12191C8.40594 5.47388 8.46288 5.13265 8.46288 5.01936C8.46288 4.84447 8.39592 4.6967 8.26917 4.59199C8.14877 4.49269 7.98054 4.44238 7.7692 4.44238C7.41765 4.44238 7.0102 4.57585 6.52354 4.85043C6.05195 5.1166 5.52602 5.56742 4.96044 6.19036C4.91617 6.23914 4.91155 6.31209 4.9493 6.36609C4.98711 6.42013 5.05723 6.4407 5.1182 6.41587C5.31677 6.33483 6.31465 5.92605 6.46011 5.83469C6.57921 5.76002 6.68232 5.72213 6.76657 5.72213C6.76959 5.72213 6.77219 5.72224 6.77436 5.72241C6.77538 5.728 6.77633 5.73652 6.77633 5.74874C6.77633 5.83471 6.75864 5.93649 6.72396 6.05074C5.87362 8.80586 5.46028 10.4948 5.46028 11.2142C5.46028 11.4681 5.53085 11.6725 5.66998 11.8217C5.81177 11.9739 6.00303 12.051 6.23844 12.051C6.48931 12.051 6.79465 11.9462 7.17185 11.7306C7.53686 11.5221 8.09397 11.0632 8.8751 10.3278C8.92569 10.2802 8.93413 10.2029 8.89499 10.1456Z" fill="white"/>
<path d="M8.86802 2.16358C8.72905 2.02134 8.55123 1.94922 8.33954 1.94922C8.076 1.94922 7.84645 2.05337 7.65737 2.25879C7.47131 2.46082 7.37695 2.70873 7.37695 2.99561C7.37695 3.22228 7.44645 3.41012 7.5835 3.55388C7.72238 3.69982 7.89781 3.7738 8.10483 3.7738C8.3576 3.7738 8.5859 3.66381 8.78337 3.44688C8.97738 3.23376 9.07578 2.9832 9.07578 2.70216C9.0758 2.48618 9.00591 2.305 8.86802 2.16358Z" fill="white"/>
</svg>
