<svg width="56" height="56" viewBox="0 0 56 56" fill="none" xmlns="http://www.w3.org/2000/svg">
<rect width="56" height="56" rx="4" fill="#D6E1F3"/>
<path d="M13.0651 38.6558V24.6646H18.3449V38.6558" stroke="#DB3539" stroke-width="1.44" stroke-miterlimit="22.9256" stroke-linecap="round" stroke-linejoin="round"/>
<path d="M21.4577 38.6556V18.605H26.7374V38.6556" stroke="#DB3539" stroke-width="1.44" stroke-miterlimit="22.9256" stroke-linecap="round" stroke-linejoin="round"/>
<path d="M29.8502 29.1997V12H35.1392V26.5652" stroke="#DB3539" stroke-width="1.44" stroke-miterlimit="22.9256" stroke-linecap="round" stroke-linejoin="round"/>
<path d="M35.6625 26.9131C31.0622 26.9131 27.3251 30.7331 27.3251 35.4565C27.3251 40.1704 31.0531 43.9999 35.6625 43.9999C40.2628 43.9999 44 40.1798 44 35.4565C44 30.7426 40.272 26.9131 35.6625 26.9131Z" stroke="#DB3539" stroke-width="1.44" stroke-miterlimit="22.9256" stroke-linecap="round" stroke-linejoin="round"/>
<path d="M38.8212 31.7305C38.1784 32.0033 32.8619 37.9592 31.9529 38.8437" stroke="#DB3539" stroke-width="1.44" stroke-miterlimit="22.9256" stroke-linecap="round" stroke-linejoin="round"/>
<path d="M38.8212 37.7899V31.7305H32.9079" stroke="#DB3539" stroke-width="1.44" stroke-miterlimit="22.9256" stroke-linecap="round" stroke-linejoin="round"/>
<path d="M12 38.8535H27.7108" stroke="#DB3539" stroke-width="1.44" stroke-miterlimit="22.9256" stroke-linecap="round" stroke-linejoin="round"/>
</svg>
