<svg width="181" height="151" viewBox="0 0 181 151" fill="none" xmlns="http://www.w3.org/2000/svg">
<rect x="0.5" y="0.5" width="180" height="150" rx="19.5" stroke="#383838"/>
<path d="M144 124.805H140.487V57.0623H144V50.8676H120.267V63.1876H130.105V69.3823H120.267V75.5779H130.105V81.7727H120.267V87.9674H130.105V94.1622H120.267V100.358H130.105V106.553H120.267V124.806H114.264V39.1736L91 25L67.7365 39.1736V124.805H61.7326V106.552H51.9633V100.358H61.7326V94.1622H51.9633V87.9674H61.7326V81.7719H51.9633V75.5779H61.7326V69.3823H51.9633V63.1876H61.7326V50.8676H38V57.0623H41.5818V124.805H38V131H144V124.805ZM99.6735 49.9731H105.868V56.1679H99.6735V49.9731ZM99.6735 62.9813H105.868V69.1761H99.6735V62.9813ZM99.6735 75.9903H105.868V82.1851H99.6735V75.9903ZM99.6735 88.9985H105.868V95.1933H99.6735V88.9985ZM99.6735 102.007H105.868V108.201H99.6735V102.007ZM87.9026 49.9731H94.0974V56.1679H87.9026V49.9731ZM87.9026 62.9813H94.0974V69.1761H87.9026V62.9813ZM87.9026 75.9903H94.0974V82.1851H87.9026V75.9903ZM87.9026 88.9985H94.0974V95.1933H87.9026V88.9985ZM87.9026 102.007H94.0974V108.201H87.9026V102.007ZM75.9263 49.9731H82.1219V56.1679H75.9263V49.9731ZM75.9263 62.9813H82.1219V69.1761H75.9263V62.9813ZM75.9263 75.9903H82.1219V82.1851H75.9263V75.9903ZM75.9263 88.9985H82.1219V95.1933H75.9263V88.9985ZM75.9263 102.007H82.1219V108.201H75.9263V102.007ZM87.9026 113.777H94.0974V124.805H87.9026V113.777Z" fill="#383838"/>
</svg>
