<svg width="180" height="78" viewBox="0 0 180 78" fill="none" xmlns="http://www.w3.org/2000/svg">
<path d="M3.8056 55.0028L2.88393 57.4705L2.61635 52.7135L0 3.68672L11.506 3.06236L23.8445 2.37854L23.012 4.66785L3.8056 55.0028ZM43.1995 54.6461L17.3036 54.7947L11.1195 71.4739L10.1681 74.0903L23.785 73.347L50.1566 71.9199L43.1995 54.6461ZM53.1892 6.06522L52.8919 0.83252L35.7072 1.75419L36.4802 3.59752L55.5677 50.5134L53.1892 6.06522Z" fill="url(#paint0_linear_660_2055)"/>
<path d="M24.0824 1.75414L23.8445 2.3785L23.012 4.6678L3.80566 55.0028L11.5061 3.06232L11.952 0L24.0824 1.75414ZM38.9183 43.7346L29.88 19.7415L21.2579 43.8536L38.9183 43.7346ZM50.1269 71.9496L43.1996 54.646L17.3036 54.7947L11.1195 71.4739L23.7851 73.347L52.446 77.5985L50.1269 71.9496ZM53.1893 6.06517L36.4803 3.59748L55.5678 50.5134L57.3814 54.9136L64.3682 7.73012L53.1893 6.06517Z" fill="url(#paint1_linear_660_2055)"/>
<path d="M84.1144 53.9108H74.2204L72.5204 58.7388H68.4744L76.9404 35.0748H81.4284L89.8944 58.7388H85.8144L84.1144 53.9108ZM83.0264 50.7488L79.1844 39.7668L75.3084 50.7488H83.0264ZM92.2834 49.3548C92.2834 47.4281 92.6687 45.7394 93.4394 44.2888C94.2327 42.8154 95.3207 41.6821 96.7034 40.8888C98.0861 40.0954 99.6727 39.6988 101.463 39.6988C103.73 39.6988 105.6 40.2428 107.073 41.3308C108.569 42.3961 109.578 43.9261 110.099 45.9208H105.917C105.577 44.9914 105.033 44.2661 104.285 43.7448C103.537 43.2234 102.597 42.9628 101.463 42.9628C99.8767 42.9628 98.6074 43.5294 97.6554 44.6628C96.7261 45.7734 96.2614 47.3374 96.2614 49.3548C96.2614 51.3721 96.7261 52.9474 97.6554 54.0808C98.6074 55.2141 99.8767 55.7808 101.463 55.7808C103.707 55.7808 105.192 54.7948 105.917 52.8228H110.099C109.555 54.7268 108.535 56.2454 107.039 57.3788C105.543 58.4894 103.685 59.0448 101.463 59.0448C99.6727 59.0448 98.0861 58.6481 96.7034 57.8548C95.3207 57.0388 94.2327 55.9054 93.4394 54.4548C92.6687 52.9814 92.2834 51.2814 92.2834 49.3548ZM118.484 43.1668V53.5368C118.484 54.2394 118.643 54.7494 118.96 55.0668C119.3 55.3614 119.867 55.5088 120.66 55.5088H123.04V58.7388H119.98C118.235 58.7388 116.897 58.3308 115.968 57.5148C115.039 56.6988 114.574 55.3728 114.574 53.5368V43.1668H112.364V40.0048H114.574V35.3468H118.484V40.0048H123.04V43.1668H118.484ZM128.585 37.5228C127.882 37.5228 127.293 37.2848 126.817 36.8088C126.341 36.3328 126.103 35.7434 126.103 35.0408C126.103 34.3381 126.341 33.7488 126.817 33.2728C127.293 32.7968 127.882 32.5588 128.585 32.5588C129.265 32.5588 129.843 32.7968 130.319 33.2728C130.795 33.7488 131.033 34.3381 131.033 35.0408C131.033 35.7434 130.795 36.3328 130.319 36.8088C129.843 37.2848 129.265 37.5228 128.585 37.5228ZM130.489 40.0048V58.7388H126.613V40.0048H130.489ZM142.819 55.2708L148.123 40.0048H152.237L145.097 58.7388H140.473L133.367 40.0048H137.515L142.819 55.2708ZM158.839 45.7848C156.482 44.6061 155.303 42.7474 155.303 40.2088C155.303 38.9848 155.609 37.8628 156.221 36.8428C156.833 35.8228 157.751 35.0181 158.975 34.4288C160.199 33.8168 161.695 33.5108 163.463 33.5108C165.209 33.5108 166.693 33.8168 167.917 34.4288C169.164 35.0181 170.093 35.8228 170.705 36.8428C171.317 37.8628 171.623 38.9848 171.623 40.2088C171.623 41.4781 171.295 42.6001 170.637 43.5748C170.003 44.5268 169.153 45.2634 168.087 45.7848C169.379 46.2608 170.399 47.0428 171.147 48.1308C171.895 49.1961 172.269 50.4541 172.269 51.9048C172.269 53.3781 171.895 54.6814 171.147 55.8148C170.399 56.9481 169.357 57.8208 168.019 58.4328C166.682 59.0448 165.163 59.3508 163.463 59.3508C161.763 59.3508 160.245 59.0448 158.907 58.4328C157.593 57.8208 156.561 56.9481 155.813 55.8148C155.065 54.6814 154.691 53.3781 154.691 51.9048C154.691 50.4314 155.065 49.1621 155.813 48.0968C156.561 47.0314 157.57 46.2608 158.839 45.7848ZM167.917 40.6848C167.917 39.4154 167.521 38.4408 166.727 37.7608C165.934 37.0808 164.846 36.7408 163.463 36.7408C162.103 36.7408 161.027 37.0808 160.233 37.7608C159.44 38.4408 159.043 39.4268 159.043 40.7188C159.043 41.8521 159.451 42.7814 160.267 43.5068C161.106 44.2094 162.171 44.5608 163.463 44.5608C164.755 44.5608 165.821 44.1981 166.659 43.4728C167.498 42.7474 167.917 41.8181 167.917 40.6848ZM163.463 47.4848C161.967 47.4848 160.743 47.8588 159.791 48.6068C158.862 49.3321 158.397 50.3861 158.397 51.7688C158.397 53.0608 158.851 54.1148 159.757 54.9308C160.664 55.7241 161.899 56.1208 163.463 56.1208C165.005 56.1208 166.217 55.7128 167.101 54.8968C168.008 54.0808 168.461 53.0381 168.461 51.7688C168.461 50.4088 167.997 49.3548 167.067 48.6068C166.161 47.8588 164.959 47.4848 163.463 47.4848Z" fill="#606161"/>
<defs>
<linearGradient id="paint0_linear_660_2055" x1="27.7764" y1="0.820122" x2="27.7764" y2="74.0959" gradientUnits="userSpaceOnUse">
<stop stop-color="#606161"/>
<stop offset="1"/>
</linearGradient>
<linearGradient id="paint1_linear_660_2055" x1="34.0846" y1="-0.0177198" x2="34.0846" y2="77.6093" gradientUnits="userSpaceOnUse">
<stop offset="0.2626" stop-color="#E7C96A"/>
<stop offset="0.9944" stop-color="#BD802B"/>
</linearGradient>
</defs>
</svg>
