<svg width="49" height="49" viewBox="0 0 49 49" fill="none" xmlns="http://www.w3.org/2000/svg">
<circle cx="24.5" cy="24.5" r="24.5" fill="#D6E1F3"/>
<path d="M22.1005 23.8981L23.1174 22.9162V29.3649H21.4382C20.1117 29.3649 19.0366 30.4024 19.0366 31.6824C19.0366 32.9625 20.1117 34 21.4382 34H29.5984C30.9243 34 32 32.9625 32 31.6824C32 30.4024 30.9243 29.3649 29.5984 29.3649H27.9205V17.3172C27.9205 16.38 27.3351 15.5344 26.4376 15.1765C25.5402 14.8174 24.507 15.0166 23.8203 15.6793L18.7026 20.6222C17.7652 21.5275 17.7658 22.9953 18.7045 23.8999C19.6426 24.804 21.163 24.804 22.1005 23.8981Z" fill="#383838"/>
</svg>
