<svg width="16" height="21" viewBox="0 0 16 21" fill="none" xmlns="http://www.w3.org/2000/svg">
<path fill-rule="evenodd" clip-rule="evenodd" d="M13 7H14C15.1 7 16 7.9 16 9V19C16 20.1 15.1 21 14 21H2C0.9 21 0 20.1 0 19V9C0 7.9 0.9 7 2 7H3V5C3 2.24 5.24 0 8 0C10.76 0 13 2.24 13 5V7ZM8.00006 2.00006C6.34006 2.00006 5.00006 3.34006 5.00006 5.00006V7.00006H11.0001V5.00006C11.0001 3.34006 9.66006 2.00006 8.00006 2.00006ZM2.00006 19V9H14.0001V19H2.00006ZM10 14C10 15.1 9.1 16 8 16C6.9 16 6 15.1 6 14C6 12.9 6.9 12 8 12C9.1 12 10 12.9 10 14Z" fill="#8692A6"/>
</svg>
