<svg width="24" height="22" viewBox="0 0 24 22" fill="none" xmlns="http://www.w3.org/2000/svg">
<path d="M9.64174 4.20206C10.2419 3.95037 10.4936 3.23401 10.2226 2.65319L9.27388 0.659011C9.00283 0.0977381 8.34456 -0.154148 7.76373 0.097738C6.11805 0.794731 4.70471 1.7047 3.58177 2.80827C2.20715 4.10526 1.27782 5.59605 0.774437 7.24173C0.271053 8.90696 0 11.172 0 14.0568V20.0006C0 20.6395 0.522745 21.1622 1.16166 21.1622H8.7705C9.40941 21.1622 9.93216 20.6395 9.93216 20.0006V12.3917C9.93216 11.7526 9.40941 11.2301 8.7705 11.2301H5.13065C5.16937 9.27443 5.63403 7.70639 6.48591 6.52518C7.1829 5.57688 8.22839 4.80244 9.64174 4.20206Z" fill="#DB3539"/>
<path d="M23.3109 4.20215C23.911 3.95045 24.1625 3.2341 23.8917 2.65327L22.943 0.67865C22.6719 0.117183 22.0137 -0.134509 21.4328 0.117183C19.8065 0.814176 18.4123 1.72414 17.2702 2.80835C15.8954 4.1249 14.9469 5.61569 14.4434 7.26137C13.94 8.88749 13.6885 11.1529 13.6885 14.0571V20.0009C13.6885 20.6398 14.2112 21.1625 14.8501 21.1625H22.459C23.0979 21.1625 23.6206 20.6398 23.6206 20.0009V12.392C23.6206 11.7529 23.0979 11.2304 22.459 11.2304H18.7998C18.8385 9.27471 19.3033 7.70667 20.155 6.52546C20.852 5.57696 21.8975 4.80253 23.3109 4.20215Z" fill="#DB3539"/>
</svg>
