<svg width="62" height="24" viewBox="0 0 62 24" fill="none" xmlns="http://www.w3.org/2000/svg">
<path d="M33.45 12.64V9.87H35.03C35.44 9.87 35.77 10 36.02 10.26C36.26 10.52 36.39 10.84 36.39 11.24C36.39 11.64 36.26 11.97 36 12.24C35.74 12.51 35.42 12.64 35.03 12.64H33.45ZM37.09 11.25C37.09 10.67 36.87 10.17 36.45 9.78C36.04 9.4 35.53 9.2 34.93 9.2H32.75V16H33.45V13.31H34.26L36.26 16H37.2L35.1 13.31C35.63 13.28 36.08 13.09 36.45 12.74C36.87 12.35 37.09 11.85 37.09 11.25ZM42.4895 13.7C42.4895 13.1 42.2495 12.58 41.7895 12.13C41.3395 11.7 40.7995 11.48 40.1895 11.48C39.5495 11.48 39.0095 11.71 38.5595 12.16C38.1095 12.61 37.8895 13.15 37.8895 13.78C37.8895 14.42 38.1095 14.96 38.5595 15.4C38.7695 15.61 39.0095 15.77 39.2895 15.89C39.5695 16.01 39.8995 16.07 40.2895 16.07C40.6795 16.07 41.0595 15.95 41.4395 15.71C41.8195 15.47 42.0995 15.13 42.2895 14.71H41.4895C41.3295 14.92 41.1395 15.08 40.9095 15.2C40.6795 15.32 40.4395 15.37 40.1895 15.37C39.8095 15.37 39.4695 15.25 39.1695 15C38.8695 14.76 38.6795 14.45 38.6195 14.07H42.4895V13.7ZM41.7495 13.47H38.6295C38.6695 13.29 38.7395 13.12 38.8395 12.96C39.1595 12.44 39.6095 12.18 40.1895 12.18C40.5595 12.18 40.8895 12.3 41.1795 12.54C41.4795 12.79 41.6595 13.1 41.7495 13.47ZM44.3387 16V8.5H43.6387V16H44.3387ZM49.4359 13.78C49.4359 14.22 49.2759 14.59 48.9659 14.9C48.6459 15.22 48.2759 15.37 47.8359 15.37C47.3959 15.37 47.0159 15.22 46.7059 14.9C46.3859 14.59 46.2359 14.22 46.2359 13.78C46.2359 13.34 46.3859 12.97 46.7059 12.65C47.0159 12.34 47.3959 12.18 47.8359 12.18C48.2759 12.18 48.6459 12.34 48.9659 12.65C49.2759 12.97 49.4359 13.34 49.4359 13.78ZM50.1359 13.78C50.1359 13.15 49.9059 12.61 49.4559 12.16C49.0059 11.71 48.4659 11.48 47.8359 11.48C47.1959 11.48 46.6559 11.71 46.2059 12.16C45.7559 12.61 45.5359 13.15 45.5359 13.78C45.5359 14.42 45.7559 14.96 46.2059 15.4C46.6559 15.85 47.2059 16.07 47.8359 16.07C48.4559 16.07 49.0059 15.85 49.4559 15.4C49.9059 14.96 50.1359 14.42 50.1359 13.78ZM54.834 13.8C54.834 14.23 54.684 14.61 54.384 14.92C54.084 15.24 53.714 15.4 53.284 15.4C52.844 15.4 52.474 15.24 52.174 14.92C51.874 14.61 51.734 14.23 51.734 13.8C51.734 13.38 51.874 13 52.174 12.68C52.474 12.36 52.844 12.2 53.284 12.2C53.714 12.2 54.084 12.36 54.384 12.68C54.684 13 54.834 13.38 54.834 13.8ZM55.534 16V11.6H54.834V12.36C54.794 12.3 54.744 12.25 54.704 12.2C54.284 11.74 53.774 11.5 53.174 11.5C52.564 11.5 52.054 11.74 51.634 12.2C51.234 12.66 51.034 13.19 51.034 13.8C51.034 14.42 51.234 14.95 51.634 15.4C52.054 15.87 52.564 16.1 53.174 16.1C53.774 16.1 54.284 15.87 54.704 15.4C54.744 15.36 54.794 15.31 54.834 15.25V16H55.534ZM60.5371 13.8C60.5371 14.23 60.3871 14.61 60.0871 14.92C59.7871 15.24 59.4171 15.4 58.9871 15.4C58.5471 15.4 58.1771 15.24 57.8771 14.92C57.5771 14.61 57.4371 14.23 57.4371 13.8C57.4371 13.38 57.5771 13 57.8771 12.68C58.1771 12.36 58.5471 12.2 58.9871 12.2C59.4171 12.2 59.7871 12.36 60.0871 12.68C60.3871 13 60.5371 13.38 60.5371 13.8ZM61.2371 16V8.5H60.5371V12.36C60.4971 12.3 60.4471 12.25 60.4071 12.2C59.9871 11.74 59.4771 11.5 58.8771 11.5C58.2671 11.5 57.7571 11.74 57.3371 12.2C56.9371 12.66 56.7371 13.19 56.7371 13.8C56.7371 14.42 56.9371 14.95 57.3371 15.4C57.7571 15.87 58.2671 16.1 58.8771 16.1C59.4771 16.1 59.9871 15.87 60.4071 15.4C60.4471 15.36 60.4971 15.31 60.5371 15.25V16H61.2371Z" fill="#1D3A37" fill-opacity="0.35"/>
<path d="M12 0C5.37258 0 0 5.37258 0 12C0 18.6274 5.37258 24 12 24C18.6274 24 24 18.6274 24 12C24 5.37258 18.6274 0 12 0ZM18.0403 12.0575L16.585 13.4692C16.4135 13.6808 16.1337 13.7896 15.8519 13.7317C15.5436 13.6712 15.5793 13.6443 13.9801 11.9958C13.6917 11.6985 13.6989 11.2237 13.9962 10.9352C14.2935 10.6469 14.7684 10.654 15.0568 10.9514L15.2743 11.1756C14.9772 10.0021 14.0628 9.036 12.8164 8.72527C11.0108 8.27508 9.17541 9.37781 8.72522 11.1835C7.98459 14.1541 11.2676 16.4723 13.8171 14.8441C14.166 14.6213 14.63 14.7234 14.8529 15.0725C15.0758 15.4216 14.9736 15.8853 14.6244 16.1083C13.8359 16.6119 12.918 16.8738 11.9936 16.8738C8.82717 16.8738 6.5063 13.8829 7.26975 10.8207C7.92009 8.21245 10.5711 6.61955 13.1793 7.26984C15.1079 7.75069 16.4811 9.3255 16.803 11.168L16.9958 10.9809C17.2931 10.6924 17.7681 10.6997 18.0564 10.997C18.3448 11.2942 18.3376 11.769 18.0403 12.0575V12.0575Z" fill="#614A89"/>
</svg>
