<svg width="56" height="56" viewBox="0 0 56 56" fill="none" xmlns="http://www.w3.org/2000/svg">
<rect width="56" height="56" rx="4" fill="#F6F4FF"/>
<path d="M34.8675 26.105L34.2623 25.9748C32.2088 25.5329 30.1019 25.3091 28.001 25.3089L34.8675 26.105ZM34.8675 26.105V25.4859M34.8675 26.105V25.4859M34.8675 25.4859V20.704C34.8675 16.9168 31.787 13.8366 28 13.8367C24.2129 13.8367 21.1327 16.9168 21.1327 20.704V25.4854V26.1041M34.8675 25.4859L21.1327 26.1041M21.1327 26.1041L21.7376 25.9743M21.1327 26.1041L21.7376 25.9743M21.7376 25.9743C23.7945 25.5328 25.9011 25.3089 28.001 25.3089L21.7376 25.9743ZM28.0001 11.5C22.9255 11.5 18.796 15.6293 18.796 20.7041V26.2464C18.796 26.4389 18.6999 26.5883 18.6529 26.6526C18.6045 26.7186 18.4931 26.851 18.3152 26.9102M28.0001 11.5L16.8161 26.9129C16.3509 27.0922 16 27.6078 16 28.1122V40.8468C16 41.3478 16.3486 41.8638 16.8109 42.047C20.3878 43.4644 24.1524 44.1829 28.0001 44.1829C31.8478 44.1829 35.6124 43.4642 39.1894 42.0469C39.6515 41.8637 40 41.3478 40 40.8468V28.1122C40 27.6078 39.6492 27.0922 39.1837 26.9127C38.7934 26.7623 38.3673 26.6106 37.8429 26.4356M28.0001 11.5C33.0748 11.5 37.204 15.6293 37.2043 20.704V26.2462C37.2043 26.4386 37.3003 26.588 37.3472 26.6522C37.3954 26.718 37.5067 26.8506 37.6846 26.9099M28.0001 11.5L37.8429 26.4356M18.3152 26.9102C18.3151 26.9102 18.315 26.9103 18.3149 26.9103L18.1572 26.4358L18.3154 26.9101C18.3153 26.9102 18.3153 26.9102 18.3152 26.9102ZM18.3152 26.9102C17.7957 27.0835 17.3771 27.2325 16.996 27.3794C16.7266 27.4832 16.5 27.8114 16.5 28.1122V40.8468C16.5 41.1448 16.7254 41.4753 16.9952 41.5822M16.9952 41.5822C16.9951 41.5822 16.9951 41.5822 16.9951 41.5822L16.8135 42.0405L16.9952 41.5822ZM16.9952 41.5822C20.5134 42.9763 24.2155 43.6829 28.0001 43.6829C31.7847 43.6829 35.4868 42.9762 39.0052 41.582M39.0052 41.582C39.0052 41.582 39.0052 41.582 39.0052 41.582L39.1872 42.0412L39.0052 41.582ZM39.0052 41.582C39.2747 41.4752 39.5 41.1449 39.5 40.8468V28.1122C39.5 27.8115 39.2736 27.4833 39.0039 27.3792M39.0039 27.3792L39.1829 26.9147L39.0038 27.3792C39.0038 27.3792 39.0039 27.3792 39.0039 27.3792ZM39.0039 27.3792C38.6225 27.2323 38.2039 27.0832 37.6846 26.9099M37.6846 26.9099C37.6847 26.9099 37.6847 26.91 37.6848 26.91L37.8429 26.4356M37.6846 26.9099L37.8429 26.4356M28 28.8478C26.2644 28.8478 24.857 30.2536 24.857 31.9907C24.857 33.0507 25.4008 33.9418 26.1784 34.4987V38.5981C26.1784 39.6048 26.9933 40.4196 27.9999 40.4196C29.0065 40.4196 29.8214 39.6048 29.8214 38.5981V34.4988C30.5991 33.9418 31.1429 33.0507 31.1429 31.9907C31.1429 30.2535 29.7355 28.8478 28 28.8478Z" stroke="#D92028"/>
</svg>
