<svg width="5885" height="2409" viewBox="0 0 5885 2409" fill="none" xmlns="http://www.w3.org/2000/svg">
<path d="M2333.67 934.167C2615.68 1337.51 2679.43 1769.26 2455.25 2021.54C2153.19 2361.68 1442.08 2245.96 867.148 1763.1C292.289 1280.16 71.1481 612.911 373.364 272.772C653.107 -42.0854 1282.9 33.8392 1831.07 429.693C1203.54 -42.8658 470.748 -142.59 151.052 217.291C-187.292 598.085 64.6714 1348.51 713.582 1893.56C1362.57 2438.77 2163.02 2571.89 2501.13 2191.18C2758.24 1901.84 2674.12 1398.45 2333.67 934.167Z" fill="#808285"/>
<path fill-rule="evenodd" clip-rule="evenodd" d="M697.768 850.602C697.846 684.005 769.479 521.621 868.657 431.651C981.646 329.352 1089.25 345.27 1197.17 408.632C1255.85 442.966 1314.76 476.441 1374.54 503.206C1495.64 557.204 1601.84 457.635 1704.3 332.863C1742.38 286.434 1778.66 234.465 1815.73 184.681C1997.77 -60.2598 2192.62 1.54118 2299.21 337.857C2437.71 775.692 2398.23 1400.72 2197.77 1799.78C2076.43 2040.97 1970.31 2113.31 1805.43 1961.93C1767.35 1926.89 1730.28 1887.95 1693.45 1849.09C1606.84 1758.58 1577.11 1765.99 1503.37 1899.19C1501.49 1743.75 1546.13 1654.33 1623.53 1679.06C1680.81 1697.17 1734.89 1742.35 1789.98 1776.76C1818.38 1794.47 1845.61 1817.8 1874.41 1833.64C1957.74 1879.6 2014.94 1839.26 2071.28 1697.71C2166.71 1458.16 2183.57 1189.88 2174.67 918.49C2171.08 809.48 2154.38 699.065 2131.36 600.901C2084.08 399.112 1969.37 349.484 1859.81 465.673C1779.75 550.649 1698.91 633.441 1616.98 711.472C1539.03 785.836 1461.46 787.241 1382.88 736.13C1288.86 674.875 1194.98 605.895 1096.51 572.81C950.278 523.65 805.919 581.159 700.889 838.195C700.343 845.296 697.534 849.9 697.768 850.602Z" fill="#40BDA8"/>
<path fill-rule="evenodd" clip-rule="evenodd" d="M957.672 1224.7C1267.07 1496.09 1584.66 1440.3 1908.02 1205.5C1835.76 1381.23 1598.15 1543.69 1408.62 1547.59C1205.97 1551.41 1020.33 1422.35 957.672 1224.7Z" fill="#ED1569"/>
<path fill-rule="evenodd" clip-rule="evenodd" d="M1926.46 1099.17C2030.79 1128.9 2054.51 1174 2012.76 1242.98C1985.76 1197.8 1957.51 1150.98 1926.46 1099.17Z" fill="#ED1569"/>
<path fill-rule="evenodd" clip-rule="evenodd" d="M904.153 1092.01C892.682 1138.67 880.821 1185.25 869.351 1231.84C865.527 1234.02 862.094 1235.97 858.348 1238.24C851.325 1205.31 835.173 1170.82 840.635 1139.68C844.771 1116.12 876.686 1096.69 896.349 1075.54C898.846 1081 901.421 1086.62 904.153 1092.01Z" fill="#ED1569"/>
<path d="M3340.54 520.833C3337.27 526.607 3329.7 528.245 3324.31 524.344C3320.33 521.457 3315.49 518.257 3309.72 514.668C3297.94 507.177 3283.66 499.92 3266.72 492.819C3255.02 487.903 3242.61 483.455 3229.58 479.554C3201.02 471.048 3171.21 466.367 3141.41 467.459C3110.19 468.551 3086.47 474.95 3070.4 486.733C3052.53 499.764 3043.63 518.023 3043.63 541.589C3043.63 555.244 3046.99 566.559 3053.62 575.533C3060.33 584.506 3070.01 592.387 3082.8 599.176C3095.52 606.043 3111.6 612.207 3131.03 617.748C3150.46 623.366 3172.93 629.218 3198.45 635.383C3231.53 644.122 3261.65 653.408 3288.73 663.318C3315.81 673.228 3338.75 685.635 3357.55 700.461C3376.28 715.365 3390.79 733.156 3401.02 753.913C3411.16 774.669 3416.31 800.185 3416.31 830.54C3416.31 865.888 3409.44 896.008 3395.79 921.134C3382.06 946.182 3363.72 966.549 3340.78 981.999C3317.91 997.449 3291.15 1008.76 3260.56 1015.94C3229.97 1023.04 3198.14 1026.63 3164.97 1026.63C3114.02 1026.63 3063.69 1019.14 3013.98 1004.32C2967.63 990.426 2925.73 971.153 2888.27 946.495C2883.59 943.451 2882.11 937.443 2884.68 932.605L2932.2 842.479C2935.25 836.626 2942.97 834.753 2948.43 838.655C2953.97 842.635 2961 847.238 2969.58 852.388C2984.48 861.362 3002.2 870.336 3022.56 879.309C3042.93 888.283 3065.56 895.93 3090.45 902.095C3115.27 908.259 3140.78 911.38 3166.84 911.38C3239.49 911.38 3275.85 888.751 3275.85 843.571C3275.85 828.667 3271.64 816.338 3263.37 806.35C3255.1 796.44 3243.32 787.778 3228.02 780.365C3212.73 772.952 3194.31 766.086 3172.62 759.921C3150.93 753.757 3126.74 747.28 3099.97 740.413C3067.51 731.752 3039.34 722.31 3015.39 712.088C2991.51 701.866 2971.61 689.927 2955.69 676.271C2939.77 662.694 2927.83 646.541 2919.87 627.97C2911.92 609.398 2907.94 587.471 2907.94 562.033C2907.94 528.558 2914.26 498.827 2926.98 472.843C2939.77 446.78 2957.41 425.166 2980.04 407.765C3002.67 390.442 3028.96 377.254 3058.93 368.281C3088.81 359.307 3121.04 354.859 3155.37 354.859C3203.21 354.859 3247.14 362.116 3287.25 376.708C3323.69 389.818 3355.91 405.19 3383.93 422.747C3388.77 425.79 3390.25 432.033 3387.52 437.027L3340.54 520.833Z" fill="#808285"/>
<path d="M4062.92 1015.66V633.386C4062.92 622.149 4047.47 618.482 4042.08 628.47L3891.17 909.071C3889.3 912.661 3885.47 914.846 3881.41 914.846H3823.05C3818.99 914.846 3815.24 912.661 3813.29 909.071L3662.38 628.392C3657 618.482 3641.55 622.149 3641.55 633.386V1015.66C3641.55 1021.59 3636.55 1026.35 3630.46 1026.35H3520.67C3514.59 1026.35 3509.59 1021.59 3509.59 1015.66V377.442C3509.59 371.512 3514.59 366.674 3520.67 366.674H3644.35C3648.49 366.674 3652.24 368.937 3654.19 372.448L3842.01 723.824C3846.14 731.471 3857.46 731.549 3861.59 723.824L4051.21 372.448C4053.16 368.937 4056.91 366.674 4061.04 366.674H4183.79C4189.87 366.674 4194.87 371.512 4194.87 377.442V1015.66C4194.87 1021.59 4189.87 1026.35 4183.79 1026.35H4074C4067.91 1026.35 4062.92 1021.59 4062.92 1015.66Z" fill="#808285"/>
<path d="M4336.61 1014.73V377.442C4336.61 371.512 4341.52 366.674 4347.61 366.674H4457.4C4463.48 366.674 4468.48 371.512 4468.48 377.442V1014.73C4468.48 1020.66 4463.48 1025.42 4457.4 1025.42H4347.61C4341.52 1025.42 4336.61 1020.66 4336.61 1014.73Z" fill="#808285"/>
<path d="M4608.34 1015.66V377.442C4608.34 371.512 4613.33 366.674 4619.42 366.674H4729.21C4735.3 366.674 4740.29 371.512 4740.29 377.442V903.219C4740.29 909.149 4745.21 913.909 4751.29 913.909H5075.12C5081.21 913.909 5086.2 918.747 5086.2 924.677V1015.66C5086.2 1021.59 5081.21 1026.35 5075.12 1026.35H4619.42C4613.33 1026.35 4608.34 1021.59 4608.34 1015.66Z" fill="#808285"/>
<path d="M5646.51 924.677V1015.58C5646.51 1021.51 5641.59 1026.35 5635.51 1026.35H5186.43C5180.35 1026.35 5175.43 1021.51 5175.43 1015.58V377.364C5175.43 371.434 5180.35 366.674 5186.43 366.674H5626.84C5632.93 366.674 5637.92 371.434 5637.92 377.364V468.349C5637.92 474.279 5632.93 479.117 5626.84 479.117H5318.31C5312.22 479.117 5307.3 483.877 5307.3 489.808V627.221C5307.3 633.152 5312.22 637.99 5318.31 637.99H5581.9C5588.06 637.99 5592.98 642.749 5592.98 648.68V731.315C5592.98 737.246 5588.06 742.006 5581.9 742.006H5318.31C5312.22 742.006 5307.3 746.843 5307.3 752.774V903.141C5307.3 909.071 5312.22 913.909 5318.31 913.909H5635.51C5641.59 913.909 5646.51 918.747 5646.51 924.677Z" fill="#808285"/>
<path d="M3238.13 1440.34C3229.39 1444.32 3230.09 1456.34 3239.06 1459.85C3263.72 1469.52 3284.63 1484.82 3301.72 1505.73C3326.23 1535.77 3338.55 1572.53 3338.55 1615.91C3338.55 1645.02 3332.62 1671.31 3320.84 1694.88C3309.06 1718.37 3292.36 1738.34 3270.67 1754.81C3249.05 1771.19 3222.91 1783.91 3192.32 1792.89C3161.74 1801.86 3127.64 1806.31 3090.1 1806.31C3041.02 1806.31 2997.87 1798.74 2960.57 1783.6C2926.31 1769.63 2897.52 1749.74 2874.27 1723.99C2870.76 1720.08 2870.76 1714.23 2874.11 1710.1L2932.71 1638.93C2937 1633.7 2944.96 1633.78 2949.49 1638.7C2964.16 1654.46 2980.94 1666.94 2999.74 1676.23C3022.37 1687.39 3050.93 1693.01 3085.26 1693.01C3124.12 1693.01 3153.93 1685.59 3174.69 1670.69C3195.37 1655.86 3205.74 1632.92 3205.74 1601.94C3205.74 1569.72 3193.88 1544.98 3170.32 1527.58C3146.75 1510.26 3111.09 1501.6 3063.34 1501.6H3047.57C3041.49 1501.6 3036.57 1496.76 3036.57 1490.83V1419.43C3036.57 1413.5 3041.49 1408.66 3047.57 1408.66H3066.22C3105.01 1408.66 3135.28 1400.15 3156.97 1383.14C3178.67 1366.05 3189.44 1344.28 3189.44 1317.6C3189.44 1292.24 3180.7 1273.35 3163.14 1260.95C3145.66 1248.54 3122.56 1242.37 3093.93 1242.37C3064.59 1242.37 3038.29 1248.85 3015.04 1261.88C2995.68 1272.73 2979.3 1287.24 2965.88 1305.35C2961.74 1310.96 2953.62 1311.67 2948.86 1306.59L2883.79 1235.74C2880.35 1232 2879.89 1226.3 2882.93 1222.32C2891.82 1210.85 2902.83 1200.32 2916.17 1190.8C2932.09 1179.33 2950.04 1169.42 2970.17 1161.07C2990.22 1152.72 3011.99 1146.16 3035.64 1141.56C3059.2 1136.88 3083.39 1134.61 3108.21 1134.61C3140.74 1134.61 3170.32 1138.59 3197.08 1146.63C3223.85 1154.67 3246.79 1165.83 3265.91 1180.11C3285.02 1194.39 3299.85 1211.55 3310.38 1231.68C3320.84 1251.82 3326.07 1274.29 3326.07 1299.03C3326.07 1317.6 3323.26 1335.31 3317.49 1352.01C3311.79 1368.71 3303.44 1383.92 3292.67 1397.5C3281.83 1411.16 3268.95 1422.63 3253.97 1431.91C3248.82 1435.03 3243.59 1437.84 3238.13 1440.34Z" fill="#808285"/>
<path d="M3689.11 1691.41C3706.28 1691.41 3722.43 1688.14 3737.33 1681.66C3752.32 1675.18 3765.58 1666.21 3776.97 1654.74C3788.52 1643.27 3797.57 1630 3804.28 1614.79C3810.92 1599.65 3814.27 1583.65 3814.27 1566.88C3814.27 1550.18 3810.92 1534.57 3804.28 1519.98C3797.57 1505.47 3788.68 1492.59 3777.52 1481.43C3766.36 1470.27 3753.17 1461.61 3737.8 1455.37C3722.59 1449.28 3706.28 1446.16 3689.11 1446.16C3671.94 1446.16 3655.63 1449.28 3640.34 1455.37C3625.05 1461.61 3611.86 1470.27 3600.7 1481.43C3589.54 1492.59 3580.65 1505.47 3573.94 1519.98C3567.3 1534.57 3563.95 1550.18 3563.95 1566.88C3563.95 1583.65 3567.3 1599.65 3573.94 1614.79C3580.65 1630 3589.7 1643.11 3601.17 1654.27C3612.64 1665.43 3625.9 1674.4 3640.89 1681.19C3655.79 1688.06 3671.94 1691.41 3689.11 1691.41ZM3936.63 1566.88C3936.63 1599.1 3930.23 1629.15 3917.51 1657C3904.79 1684.94 3887.39 1709.21 3865.46 1729.96C3843.46 1750.72 3817.32 1767.03 3787.04 1778.73C3756.76 1790.51 3724.15 1796.45 3689.11 1796.45C3650.87 1796.45 3616.31 1789.58 3585.41 1776C3554.51 1762.35 3528.21 1742.53 3506.59 1716.54C3484.9 1690.48 3468.2 1658.8 3456.42 1621.26C3444.64 1583.81 3438.71 1541.2 3438.71 1493.53C3438.71 1433.44 3444.95 1380.3 3457.36 1334.19C3469.76 1287.99 3487.32 1249.29 3509.95 1218.08C3532.5 1186.71 3560.12 1163.06 3592.59 1146.91C3625.05 1130.84 3661.41 1122.8 3701.52 1122.8C3744.2 1122.8 3783.68 1131.77 3819.97 1149.72C3853.68 1166.34 3882.39 1189.67 3906.19 1219.56C3909.47 1223.69 3909.08 1229.62 3905.49 1233.53L3847.59 1294.94C3842.75 1300.09 3834.56 1299.31 3830.35 1293.77C3816.3 1275.58 3799.13 1260.91 3778.92 1250.07C3754.73 1237.04 3728.28 1230.56 3699.64 1230.56C3656.96 1230.56 3623.02 1247.03 3597.89 1279.8C3578.07 1305.63 3565.66 1339.88 3560.59 1382.57C3559.5 1392.71 3571.91 1398.95 3579.24 1391.7C3589.23 1381.86 3601.01 1373.36 3614.59 1366.26C3639.4 1353.23 3668.12 1346.67 3700.58 1346.67C3733.67 1346.67 3764.72 1352.29 3793.75 1363.45C3822.7 1374.61 3847.75 1390.06 3868.82 1409.88C3889.81 1429.7 3906.35 1453.11 3918.45 1480.03C3930.54 1506.95 3936.63 1535.98 3936.63 1566.88Z" fill="#808285"/>
<path d="M4138.61 1457.24C4138.61 1485.72 4142.9 1513.35 4151.49 1539.96C4160.15 1566.56 4172.55 1590.13 4188.78 1610.57C4205.02 1631.02 4224.99 1647.4 4248.48 1659.81C4272.04 1672.22 4298.81 1678.38 4328.77 1678.38C4359.36 1678.38 4386.28 1672.06 4409.54 1659.34C4432.79 1646.7 4452.38 1629.77 4468.29 1608.7C4484.21 1587.63 4496.31 1563.99 4504.66 1537.61C4512.93 1511.32 4517.06 1484.55 4517.06 1457.24C4517.06 1428.76 4512.62 1401.22 4503.64 1374.53C4494.75 1347.92 4482.18 1324.35 4465.95 1303.91C4449.72 1283.54 4429.9 1267.24 4406.65 1255.14C4383.4 1243.05 4357.18 1237.04 4327.84 1237.04C4297.25 1237.04 4270.33 1243.44 4247.07 1256.08C4223.82 1268.8 4204.08 1285.49 4187.85 1306.25C4171.62 1327.01 4159.29 1350.57 4151.02 1376.87C4142.75 1403.24 4138.61 1430.01 4138.61 1457.24ZM4326.9 1791.76C4279.07 1791.76 4235.45 1782.32 4195.96 1763.44C4156.48 1744.48 4122.54 1719.43 4094.21 1688.14C4065.81 1656.85 4044.04 1621.11 4028.74 1580.84C4013.45 1540.58 4005.8 1499.38 4005.8 1457.24C4005.8 1413.31 4013.92 1371.17 4030.15 1330.91C4046.38 1290.64 4069.01 1255.06 4098.03 1224.01C4126.98 1193.11 4161.24 1168.45 4200.72 1150.19C4240.21 1131.93 4283.2 1122.8 4329.79 1122.8C4377.54 1122.8 4421.16 1132.55 4460.65 1152.06C4500.13 1171.57 4533.92 1197.08 4561.93 1228.69C4590.02 1260.29 4611.64 1296.18 4626.93 1336.45C4642.23 1376.71 4649.87 1417.6 4649.87 1459.11C4649.87 1503.12 4641.76 1545.03 4625.53 1584.98C4609.3 1624.93 4586.82 1660.28 4558.19 1690.95C4529.47 1721.61 4495.37 1746.11 4455.89 1764.3C4416.4 1782.63 4373.41 1791.76 4326.9 1791.76Z" fill="#808285"/>
<path d="M3040.04 2219.65C3040.04 2227.3 3038.48 2234.24 3035.43 2240.64C3032.23 2247.04 3028.02 2252.5 3022.79 2257.1C3017.41 2261.79 3011.32 2265.45 3004.22 2267.95C2997.2 2270.52 2989.71 2271.85 2981.67 2271.85H2883.43V2069.36H2983.7C2990.88 2069.36 2997.51 2070.92 3003.36 2073.89C3009.29 2076.93 3014.29 2080.91 3018.34 2085.75C3022.4 2090.58 3025.68 2096.12 3027.94 2102.21C3030.21 2108.45 3031.22 2114.7 3031.22 2121.02C3031.22 2131.24 3028.57 2140.52 3023.34 2149.03C3018.03 2157.54 3010.7 2163.86 3001.33 2167.99C3013.19 2171.42 3022.71 2177.82 3029.66 2187.11C3036.6 2196.39 3040.04 2207.24 3040.04 2219.65ZM3019.51 2216.21C3019.51 2211.3 3018.58 2206.46 3016.86 2201.7C3015.15 2197.1 3012.65 2193.04 3009.37 2189.53C3006.17 2186.09 3002.43 2183.13 2997.98 2180.94C2993.61 2178.76 2988.77 2177.75 2983.7 2177.75H2903.95V2254.45H2981.67C2986.9 2254.45 2991.89 2253.36 2996.5 2251.33C3001.1 2249.14 3005.16 2246.41 3008.51 2242.9C3011.95 2239.39 3014.6 2235.33 3016.63 2230.57C3018.5 2225.97 3019.51 2221.13 3019.51 2216.21ZM2903.95 2086.68V2161.44H2975.5C2980.58 2161.44 2985.34 2160.42 2989.78 2158.32C2994.15 2156.21 2997.9 2153.48 3001.1 2150.04C3004.14 2146.61 3006.64 2142.63 3008.36 2138.18C3010.15 2133.74 3011.01 2129.05 3011.01 2124.14C3011.01 2118.99 3010.23 2114.15 3008.51 2109.47C3006.87 2105.02 3004.53 2101.04 3001.49 2097.69C2998.45 2094.41 2994.86 2091.75 2990.72 2089.73C2986.66 2087.7 2982.22 2086.68 2977.3 2086.68H2903.95ZM3227.78 2254.14V2271.85H3087.87V2069.36H3225.13V2087.07H3108.39V2160.03H3210.15V2176.89H3108.39V2254.14H3227.78ZM3276.71 2069.36L3344.75 2178.29L3413.34 2069.36H3435.66L3354.97 2196.55V2271.85H3334.45V2196L3254.08 2069.36H3276.71ZM3545.37 2273.26C3530.86 2273.26 3517.67 2270.37 3505.57 2264.59C3493.56 2258.74 3483.26 2251.02 3474.67 2241.42C3466.09 2231.82 3459.46 2220.9 3454.7 2208.57C3450.01 2196.16 3447.67 2183.52 3447.67 2170.64C3447.67 2157.15 3450.17 2144.19 3455.16 2131.78C3460.16 2119.46 3467.03 2108.53 3475.84 2099.01C3484.66 2089.49 3495.04 2081.92 3506.9 2076.38C3518.84 2070.76 3531.71 2067.96 3545.6 2067.96C3560.12 2067.96 3573.38 2070.92 3585.4 2076.93C3597.42 2082.94 3607.64 2090.74 3616.14 2100.49C3624.65 2110.17 3631.2 2121.17 3635.96 2133.35C3640.72 2145.67 3643.06 2158.16 3643.06 2170.88C3643.06 2184.38 3640.57 2197.33 3635.57 2209.66C3630.58 2221.99 3623.71 2232.84 3614.97 2242.28C3606.31 2251.64 3596.01 2259.21 3584.07 2264.83C3572.13 2270.45 3559.26 2273.26 3545.37 2273.26ZM3468.2 2170.64C3468.2 2181.65 3469.99 2192.18 3473.81 2202.4C3477.48 2212.55 3482.79 2221.6 3489.65 2229.48C3496.44 2237.36 3504.64 2243.68 3514 2248.29C3523.44 2252.89 3533.82 2255.23 3545.37 2255.23C3557.07 2255.23 3567.84 2252.73 3577.36 2247.82C3586.88 2242.9 3595 2236.5 3601.63 2228.47C3608.26 2220.51 3613.41 2211.53 3617.08 2201.39C3620.67 2191.32 3622.54 2181.02 3622.54 2170.64C3622.54 2159.56 3620.59 2148.95 3616.77 2138.81C3612.94 2128.66 3607.64 2119.69 3600.77 2111.81C3593.9 2104.01 3585.87 2097.76 3576.43 2093.08C3567.06 2088.48 3556.76 2086.14 3545.37 2086.14C3533.66 2086.14 3522.97 2088.56 3513.38 2093.39C3503.86 2098.23 3495.74 2104.63 3489.03 2112.67C3482.4 2120.63 3477.25 2129.68 3473.66 2139.82C3469.99 2149.97 3468.2 2160.19 3468.2 2170.64ZM3711.26 2106.42V2271.85H3690.74V2069.36H3706.5L3844.46 2237.83V2069.67H3864.91V2271.85H3847.04L3711.26 2106.42ZM3926.16 2271.85V2069.36H3996.86C4013.48 2069.36 4028.07 2072.01 4040.4 2077.32C4052.81 2082.7 4063.19 2089.88 4071.54 2099.01C4079.81 2108.14 4086.05 2118.83 4090.26 2131.08C4094.56 2143.41 4096.58 2156.44 4096.58 2170.25C4096.58 2185.78 4094.32 2199.59 4089.56 2212.08C4084.8 2224.56 4078.17 2235.18 4069.43 2243.99C4060.69 2252.81 4050.31 2259.68 4038.06 2264.59C4025.89 2269.43 4012.08 2271.85 3996.86 2271.85H3926.16ZM4076.14 2170.25C4076.14 2158.08 4074.35 2146.92 4070.83 2136.78C4067.24 2126.63 4062.09 2117.82 4055.38 2110.4C4048.67 2103.07 4040.32 2097.29 4030.57 2093.16C4020.82 2089.1 4009.58 2087.07 3996.86 2087.07H3946.69V2254.14H3996.86C4009.74 2254.14 4021.13 2252.03 4031.04 2247.74C4040.95 2243.45 4049.14 2237.52 4055.77 2230.03C4062.48 2222.54 4067.56 2213.72 4070.91 2203.5C4074.35 2193.35 4076.14 2182.27 4076.14 2170.25ZM4228.77 2271.85V2069.36H4299.47C4316.09 2069.36 4330.6 2072.01 4343.01 2077.32C4355.41 2082.7 4365.79 2089.88 4374.14 2099.01C4382.41 2108.14 4388.66 2118.83 4392.87 2131.08C4397.16 2143.41 4399.19 2156.44 4399.19 2170.25C4399.19 2185.78 4396.85 2199.59 4392.17 2212.08C4387.41 2224.56 4380.77 2235.18 4372.04 2243.99C4363.3 2252.81 4352.92 2259.68 4340.67 2264.59C4328.49 2269.43 4314.68 2271.85 4299.47 2271.85H4228.77ZM4378.67 2170.25C4378.67 2158.08 4376.95 2146.92 4373.44 2136.78C4369.85 2126.63 4364.7 2117.82 4357.99 2110.4C4351.28 2103.07 4342.93 2097.29 4333.18 2093.16C4323.42 2089.1 4312.19 2087.07 4299.47 2087.07H4249.29V2254.14H4299.47C4312.34 2254.14 4323.73 2252.03 4333.64 2247.74C4343.55 2243.45 4351.75 2237.52 4358.38 2230.03C4365.01 2222.54 4370.08 2213.72 4373.52 2203.5C4376.95 2193.35 4378.67 2182.27 4378.67 2170.25ZM4587.4 2254.14V2271.85H4447.49V2069.36H4584.75V2087.07H4468.01V2160.03H4569.77V2176.89H4468.01V2254.14H4587.4ZM4655.68 2106.42V2271.85H4635.16V2069.36H4650.92L4788.88 2237.83V2069.67H4809.32V2271.85H4791.45L4655.68 2106.42ZM5018.37 2087.07H4944.16V2271.85H4923.72V2087.07H4849.43V2069.36H5018.37V2087.07ZM5058.56 2271.85V2069.36H5079.08V2271.85H5058.56ZM5262.06 2107.28C5256.13 2100.88 5248.33 2095.58 5238.58 2091.52C5228.82 2087.62 5217.66 2085.59 5205.18 2085.59C5186.84 2085.59 5173.42 2088.95 5164.99 2095.73C5156.64 2102.45 5152.43 2111.73 5152.43 2123.28C5152.43 2129.29 5153.52 2134.28 5155.78 2138.18C5158.05 2142.16 5161.48 2145.44 5166.24 2148.33C5170.84 2151.14 5176.85 2153.63 5184.27 2155.74C5191.52 2157.85 5200.18 2159.95 5210.17 2162.06C5221.33 2164.32 5231.4 2166.9 5240.29 2169.71C5249.19 2172.6 5256.76 2176.11 5263 2180.4C5269.24 2184.69 5273.92 2189.84 5277.28 2195.93C5280.63 2202.01 5282.27 2209.66 5282.27 2218.79C5282.27 2228.08 5280.4 2236.19 5276.66 2243.06C5272.99 2249.92 5267.76 2255.54 5261.13 2260.07C5254.49 2264.75 5246.61 2268.03 5237.48 2270.21C5228.2 2272.4 5218.13 2273.57 5207.21 2273.57C5174.9 2273.57 5147.04 2263.74 5123.64 2244.15L5133.86 2227.92C5137.6 2231.74 5141.97 2235.33 5147.28 2238.69C5152.43 2242.12 5158.12 2245.16 5164.52 2247.74C5170.92 2250.31 5177.79 2252.34 5184.97 2253.75C5192.22 2255.07 5199.79 2255.86 5207.75 2255.86C5224.37 2255.86 5237.33 2252.89 5246.69 2247.12C5255.9 2241.34 5260.58 2232.52 5260.58 2220.82C5260.58 2214.5 5259.25 2209.19 5256.68 2204.9C5254.03 2200.61 5250.05 2197.02 5244.74 2193.82C5239.51 2190.7 5232.96 2187.97 5225.15 2185.63C5217.27 2183.36 5208.22 2181.1 5197.77 2178.84C5186.92 2176.34 5177.32 2173.77 5169.13 2171.11C5160.86 2168.46 5153.99 2165.1 5148.29 2161.2C5142.6 2157.22 5138.38 2152.31 5135.5 2146.77C5132.69 2141.23 5131.28 2134.2 5131.28 2126.09C5131.28 2116.8 5133.08 2108.45 5136.67 2101.12C5140.26 2093.78 5145.41 2087.78 5152.04 2082.94C5158.75 2078.1 5166.55 2074.35 5175.6 2071.78C5184.58 2069.28 5194.57 2067.96 5205.41 2067.96C5219.3 2067.96 5231.71 2069.98 5242.63 2074.04C5253.4 2078.18 5263.23 2083.87 5272.05 2091.29L5262.06 2107.28ZM5475.25 2087.07H5400.96V2271.85H5380.52V2087.07H5306.31V2069.36H5475.25V2087.07ZM5515.35 2271.85V2069.36H5603.29C5612.35 2069.36 5620.62 2071.15 5628.19 2074.9C5635.68 2078.65 5642.15 2083.48 5647.62 2089.49C5653.08 2095.42 5657.37 2102.21 5660.41 2109.86C5663.46 2117.43 5664.94 2125.07 5664.94 2132.96C5664.94 2140.37 5663.85 2147.47 5661.58 2154.18C5659.32 2160.89 5656.2 2166.98 5652.22 2172.36C5648.16 2177.82 5643.33 2182.43 5637.63 2186.17C5632.01 2189.84 5625.69 2192.34 5618.59 2193.66L5669.62 2271.85H5646.45L5597.52 2197.1H5535.88V2271.85H5515.35ZM5535.88 2179.46H5603.92C5609.93 2179.46 5615.55 2178.14 5620.54 2175.56C5625.53 2173.06 5629.75 2169.55 5633.34 2165.1C5636.85 2160.73 5639.58 2155.82 5641.45 2150.36C5643.4 2144.82 5644.34 2139.04 5644.34 2132.96C5644.34 2126.87 5643.33 2121.02 5641.06 2115.4C5638.8 2109.86 5635.76 2104.86 5631.93 2100.73C5628.11 2096.59 5623.58 2093.24 5618.43 2090.74C5613.28 2088.24 5607.9 2087.07 5602.12 2087.07H5535.88V2179.46ZM5710.35 2069.36L5778.48 2178.29L5847.07 2069.36H5869.3L5788.7 2196.55V2271.85H5768.18V2196L5687.73 2069.36H5710.35Z" fill="#808285" stroke="#808285" stroke-width="17.1669" stroke-miterlimit="2.61313"/>
</svg>
