<svg width="110" height="110" viewBox="0 0 110 110" fill="none" xmlns="http://www.w3.org/2000/svg">
<path d="M55.0007 105.74C83.0235 105.74 105.74 83.0226 105.74 54.9999C105.74 26.9772 83.0235 4.26026 55.0007 4.26026C26.978 4.26026 4.26109 26.9772 4.26109 54.9999C4.26109 83.0226 26.978 105.74 55.0007 105.74Z" fill="#D92028"/>
<path d="M55 110C24.6754 110 0 85.3288 0 55C0 24.6754 24.6754 0 55 0C85.3288 0 110 24.6754 110 55C110 85.3288 85.3288 110 55 110ZM55 8.52049C29.3702 8.52049 8.52049 29.3702 8.52049 55C8.52049 80.6298 29.3702 101.48 55 101.48C80.6298 101.48 101.48 80.6255 101.48 55C101.48 29.3702 80.6298 8.52049 55 8.52049Z" fill="#D92028"/>
<path d="M48.3573 75.2369C47.2156 75.2369 46.1248 74.781 45.3196 73.963L29.5993 57.987C27.9506 56.3085 27.9718 53.616 29.6504 51.963C31.329 50.3186 34.0257 50.3356 35.6744 52.0142L48.2337 64.7778L74.2172 36.1617C75.8062 34.4193 78.4988 34.2958 80.2326 35.8721C81.975 37.4527 82.1028 40.1451 80.5222 41.8918L51.5099 73.8436C50.7219 74.7126 49.6141 75.2154 48.4426 75.2409C48.4127 75.2369 48.3871 75.2369 48.3573 75.2369Z" fill="white"/>
</svg>
