<svg width="49" height="49" viewBox="0 0 49 49" fill="none" xmlns="http://www.w3.org/2000/svg">
<circle cx="24.5" cy="24.5" r="24.5" fill="#D6E1F3"/>
<path d="M24.8169 35.3519C28.7308 35.3519 31.8848 32.2296 31.9971 28.2434C32.0255 27.2252 31.8828 24.6398 29.9411 22.6426C29.6226 22.3147 29.2149 21.9658 28.7045 21.6473L31.3054 18.1438C31.8903 17.3562 31.9815 16.3055 31.5407 15.4293C31.0999 14.553 30.202 14 29.221 14H21.4371C20.0031 14 18.8409 15.1622 18.8409 16.5962C18.8409 18.0302 20.0031 19.1924 21.4371 19.1924H24.0604L22.3045 21.5568C21.7197 22.3444 21.6284 23.3944 22.0699 24.2713C22.5107 25.1475 23.4079 25.7006 24.3889 25.7006C25.2401 25.7006 25.8561 25.8899 26.2185 26.2624C26.6775 26.735 26.8222 27.5463 26.8067 28.098C26.7742 29.2541 25.9 30.1594 24.8169 30.1594C24.0171 30.1594 23.2997 29.6835 22.9887 28.9472C22.4323 27.6254 20.9091 27.0061 19.588 27.5632C18.2669 28.1203 17.6476 29.6429 18.2047 30.964C19.3283 33.6298 21.9239 35.3519 24.8169 35.3519Z" fill="#383838"/>
</svg>
