<svg width="42" height="42" viewBox="0 0 42 42" fill="none" xmlns="http://www.w3.org/2000/svg">
<circle cx="21" cy="21" r="21" fill="white"/>
<path d="M18.7152 28.7319C17.9368 28.7319 17.1357 28.6689 16.3297 28.5425C14.9101 28.3198 13.4731 27.5772 13.0665 27.3549L12 26.7718L13.1547 26.3921C14.4168 25.9771 15.1846 25.7196 16.1351 25.3164C15.1834 24.8555 14.4499 24.0265 14.0969 22.9548L13.8282 22.1393L14.0485 22.173C13.8396 21.9624 13.6747 21.7487 13.5469 21.5544C13.0922 20.8638 12.8514 20.0199 12.9027 19.2967L12.9532 18.585L13.3793 18.75C13.1996 18.4106 13.0696 18.048 12.9933 17.668C12.8072 16.7413 12.9629 15.7568 13.4319 14.8959L13.8031 14.2145L14.2996 14.8108C15.8696 16.6968 17.8583 17.8157 20.2185 18.1432C20.1221 17.4787 20.1944 16.8373 20.4335 16.2625C20.7118 15.5931 21.207 15.0255 21.8651 14.621C22.596 14.1718 23.4823 13.9541 24.3608 14.0081C25.2928 14.0653 26.139 14.4146 26.8111 15.0187C27.1393 14.9334 27.3812 14.8424 27.708 14.7193C27.9046 14.6453 28.1277 14.5612 28.4067 14.4651L29.435 14.1108L28.7645 16.026C28.8087 16.0223 28.8543 16.0191 28.9019 16.0171L30 15.9673L29.351 16.8544C29.3138 16.9052 29.3043 16.9196 29.2911 16.9395C29.2388 17.0183 29.1737 17.1164 28.2829 18.3059C28.0598 18.6038 27.9485 18.9917 27.9692 19.3985C28.0482 20.9443 27.8585 22.3428 27.4052 23.5552C26.9764 24.7021 26.3121 25.6862 25.4307 26.4801C24.34 27.4623 22.9493 28.1348 21.297 28.4787C20.4865 28.6473 19.6161 28.7319 18.7152 28.7319Z" fill="black"/>
</svg>
