<svg width="49" height="49" viewBox="0 0 49 49" fill="none" xmlns="http://www.w3.org/2000/svg">
<circle cx="24.5" cy="24.5" r="24.5" fill="#D6E1F3"/>
<path d="M23.7566 24.583C21.7126 26.5664 19.3963 28.8149 18.2211 31.4535C17.8689 32.2438 17.9408 33.1593 18.4129 33.8857C18.8843 34.6121 19.6912 35.0502 20.5568 35.0502H29.4426C30.8548 35.0502 31.9993 33.905 31.9993 32.4935C31.9993 31.0813 30.8548 29.9368 29.4426 29.9368H25.6176C26.1762 29.3602 26.7588 28.7942 27.318 28.2523C29.8301 25.8141 32 23.7081 32 21.0722C32 17.1726 28.8274 14 24.9285 14C22.0788 14 19.5228 15.6958 18.4162 18.3211C17.8676 19.6221 18.4775 21.1215 19.7784 21.6701C21.0801 22.2194 22.5795 21.6088 23.1275 20.3079C23.4337 19.5821 24.1401 19.1134 24.9285 19.1134C25.9911 19.1134 26.8593 19.965 26.8859 21.0223C26.6895 21.736 24.9271 23.4465 23.7566 24.583Z" fill="#383838"/>
</svg>
