<svg width="42" height="42" viewBox="0 0 42 42" fill="none" xmlns="http://www.w3.org/2000/svg">
<path d="M21 0C9.40379 0 0 9.40379 0 21C0 32.5962 9.40379 42 21 42C32.5962 42 42 32.5962 42 21C42 9.40379 32.5962 0 21 0ZM21.4451 33.2268C21.4448 33.2268 21.4454 33.2268 21.4451 33.2268H21.44C19.3363 33.2259 17.2692 32.6984 15.4334 31.6974L8.77061 33.4447L10.5538 26.9335C9.45378 25.0282 8.87508 22.8665 8.87604 20.652C8.87892 13.7242 14.5173 8.08809 21.4451 8.08809C24.8071 8.08937 27.963 9.39803 30.3359 11.7728C32.709 14.1478 34.0151 17.3047 34.0138 20.6619C34.0109 27.5901 28.3719 33.2268 21.4451 33.2268Z" fill="white"/>
<path d="M21.4493 10.21C15.687 10.21 11.0006 14.8944 10.998 20.6526C10.9974 22.6258 11.5498 24.5475 12.5954 26.2102L12.8438 26.6053L11.7882 30.4592L15.7421 29.4223L16.1237 29.6485C17.7275 30.6002 19.5661 31.1036 21.4407 31.1042H21.4449C27.2027 31.1042 31.8891 26.4195 31.8917 20.6609C31.8926 17.8703 30.807 15.2466 28.8347 13.2727C26.8624 11.2988 24.2394 10.2109 21.4493 10.21ZM27.594 25.1425C27.3322 25.8757 26.0777 26.5451 25.4743 26.6354C24.9331 26.7162 24.2487 26.7498 23.4963 26.5111C23.04 26.3663 22.4552 26.173 21.7057 25.8497C18.5555 24.4898 16.498 21.3188 16.341 21.1092C16.184 20.8997 15.0586 19.4068 15.0586 17.8613C15.0586 16.3162 15.8699 15.5564 16.1577 15.2424C16.4458 14.928 16.7861 14.8495 16.9953 14.8495C17.2045 14.8495 17.4141 14.8515 17.5971 14.8604C17.79 14.87 18.0489 14.787 18.3036 15.3994C18.5654 16.0281 19.1935 17.5732 19.272 17.7302C19.3505 17.8876 19.4027 18.0709 19.2983 18.2804C19.1935 18.49 18.8455 18.9421 18.5132 19.3542C18.3738 19.5269 18.1921 19.6807 18.3754 19.9951C18.5584 20.3091 19.189 21.3374 20.1224 22.1699C21.3221 23.2395 22.3341 23.5708 22.6481 23.7281C22.9618 23.8851 23.1451 23.8589 23.3284 23.6496C23.5113 23.4401 24.1134 22.7329 24.3227 22.4185C24.5319 22.1042 24.7415 22.1567 25.0292 22.2615C25.3173 22.366 26.8612 23.1257 27.1752 23.2827C27.4892 23.4401 27.6985 23.5186 27.777 23.6496C27.8558 23.7807 27.8558 24.4091 27.594 25.1425Z" fill="white"/>
</svg>
